<svg
   xmlns:dc="http://purl.org/dc/elements/1.1/"
   xmlns:cc="http://creativecommons.org/ns#"
   xmlns:rdf="http://www.w3.org/1999/02/22-rdf-syntax-ns#"
   xmlns:svg="http://www.w3.org/2000/svg"
   xmlns="http://www.w3.org/2000/svg"
   xmlns:sodipodi="http://sodipodi.sourceforge.net/DTD/sodipodi-0.dtd"
   xmlns:inkscape="http://www.inkscape.org/namespaces/inkscape"
   viewBox="0 0 59.531249 59.531252"
   version="1.1"
   id="svg414"
   inkscape:version="1.0.2 (e86c870879, 2021-01-15, custom)"
   sodipodi:docname="BishopBlack.svg">
  <defs
     id="defs408">
    <inkscape:path-effect
       effect="powermask"
       id="path-effect1337"
       is_visible="true"
       lpeversion="1"
       uri="#mask-powermask-path-effect1337"
       invert="false"
       hide_mask="false"
       background="true"
       background_color="#ffffffff" />
    <mask
       maskUnits="userSpaceOnUse"
       id="mask-powermask-path-effect1337">
      <rect
         style="fill:#000000;fill-opacity:1;stroke:#000000;stroke-width:0.358884;stroke-opacity:1"
         id="rect1335"
         width="44.732449"
         height="14.099051"
         x="7.3811173"
         y="42.077751" />
    </mask>
  </defs>
  <sodipodi:namedview
     id="base"
     pagecolor="#ffffff"
     bordercolor="#666666"
     borderopacity="1.0"
     inkscape:pageopacity="0.0"
     inkscape:pageshadow="2"
     inkscape:zoom="0.99999999"
     inkscape:cx="118.85947"
     inkscape:cy="133.22424"
     inkscape:document-units="mm"
     inkscape:current-layer="layer1"
     inkscape:document-rotation="0"
     showgrid="false"
     units="px"
     inkscape:window-width="1920"
     inkscape:window-height="1017"
     inkscape:window-x="-8"
     inkscape:window-y="-8"
     inkscape:window-maximized="1" />
  <metadata
     id="metadata411">
    <rdf:RDF>
      <cc:Work
         rdf:about="">
        <dc:format>image/svg+xml</dc:format>
        <dc:type
           rdf:resource="http://purl.org/dc/dcmitype/StillImage" />
        <dc:title />
      </cc:Work>
    </rdf:RDF>
  </metadata>
  <g
     inkscape:label="Vague Outline"
     inkscape:groupmode="layer"
     id="layer1">
    <path
       style="fill:#000000;stroke-width:0.802922"
       d="M 5.3302175,54.478549 C 2.54948,51.576084 3.1208821,50.72032 9.8585837,47.696619 c 4.4790333,-2.010065 5.1753133,-2.112653 8.3349573,-1.228007 3.257277,0.911982 6.82756,0.562767 6.82756,-0.667812 0,-0.308196 -1.826312,-1.209006 -4.058469,-2.001798 -2.232158,-0.792795 -4.241869,-1.919371 -4.466023,-2.503512 -0.224179,-0.584133 0.15523,-2.408995 0.843077,-4.055243 1.210478,-2.897083 1.186304,-3.069625 -0.752988,-5.374345 -3.999709,-4.753384 -1.810878,-12.832191 4.793624,-17.692896 3.26189,-2.40065 3.53411,-2.862021 3.110894,-5.2724839 -0.807605,-4.599754 3.586661,-7.439283 7.30497,-4.7203902 1.090852,0.7976538 1.374031,1.8182269 1.116525,4.0239669 -0.317577,2.7202632 -0.03075,3.2202492 3.606914,6.2875772 4.082749,3.442622 6.920366,8.338572 6.95111,11.993261 0.0097,1.152798 -0.916377,3.47234 -2.057947,5.154535 -1.994547,2.939134 -2.028505,3.178394 -0.869758,6.128279 1.172705,2.985413 1.150288,3.11342 -0.816106,4.660185 -1.112065,0.874752 -3.276875,1.825881 -4.810692,2.113627 -4.726514,0.886699 -1.659044,2.273085 5.174776,2.338813 4.428889,0.0426 7.472975,0.568494 10.623686,1.835358 7.139802,2.870822 7.199327,2.951161 4.323898,5.836004 l -2.500966,2.509148 -2.718048,-1.435845 C 47.498099,54.398689 36.314167,52.922228 28.634261,52.828236 23.225455,52.762011 11.102192,54.490306 9.4690317,55.560394 7.6644357,56.74281 7.4444126,56.685298 5.3302175,54.478549 Z M 18.0559,52.037286 c 4.338895,-0.359687 8.378121,-1.059994 8.976058,-1.556236 0.813529,-0.675167 2.017939,-0.58625 4.785223,0.353267 2.033934,0.690537 6.279326,1.255524 9.434202,1.255524 3.154876,0 6.935832,0.433816 8.402127,0.964034 1.929905,0.697864 2.908496,0.721525 3.544313,0.0857 1.583276,-1.583277 -7.33081,-4.261438 -14.183906,-4.261438 -4.245449,0 -6.616905,-0.391065 -8.044728,-1.326611 -1.918549,-1.257082 -2.195624,-1.230522 -5.286612,0.506707 -3.021453,1.698155 -3.567576,1.76 -7.40735,0.838852 -3.79165,-0.909604 -4.468647,-0.842521 -7.933398,0.786102 -2.0834013,0.979315 -3.7879995,2.041878 -3.7879995,2.361252 0,1.130414 1.1368015,1.694292 2.3668322,1.174005 C 9.6061437,52.92848 13.717001,52.396969 18.0559,52.03728 Z m 18.914658,-10.34859 c 0.929648,-0.520254 0.812345,-0.828791 -0.603106,-1.586315 -2.75687,-1.475432 -9.010141,-1.924128 -12.751467,-0.914964 -3.919145,1.057127 -4.397252,2.216604 -1.204387,2.920801 1.214422,0.267839 2.569357,0.6264 3.010967,0.796785 1.216385,0.469314 10.232933,-0.480361 11.547993,-1.216307 z M 25.87684,36.674178 c 2.880203,-0.668082 4.558185,-0.588805 7.828518,0.369866 4.47435,1.311619 5.225992,0.748585 3.022877,-2.264354 -0.973948,-1.331956 -2.135595,-1.558578 -7.989101,-1.558578 -7.126268,0 -7.969398,0.333301 -8.939454,3.533888 -0.501579,1.654893 -0.372175,1.845979 0.913409,1.348783 0.823778,-0.318591 3.147464,-0.961912 5.163751,-1.429605 z m -2.222234,-5.498366 c 3.256719,-0.602038 5.972322,-0.582799 9.559745,0.06774 4.809687,0.872166 5.071446,0.833781 6.520902,-0.956216 1.116376,-1.378669 1.413013,-2.725949 1.137792,-5.1677 -0.474633,-4.210919 -3.14978,-7.815679 -8.02739,-10.816902 l -3.852118,-2.370231 -3.104335,1.583714 c -3.969424,2.02505 -8.733532,7.577162 -9.357997,10.905851 -0.310413,1.654649 -0.01887,3.48223 0.81167,5.088356 0.712837,1.37847 1.401086,2.506313 1.529446,2.506313 0.128373,0 2.280388,-0.378411 4.782285,-0.84091 z m 3.921365,-5.983951 C 27.072947,24.087838 26.11166,23.18455 25.43978,23.18455 c -0.671885,0 -1.221604,-0.361315 -1.221604,-0.802924 0,-0.44161 0.652885,-0.802927 1.450851,-0.802927 0.844211,0 1.801426,-0.923247 2.289283,-2.208043 l 0.838426,-2.208042 0.902545,2.208042 c 0.4964,1.214426 1.453464,2.208043 2.126809,2.208043 0.673342,0 1.224261,0.361317 1.224261,0.802927 0,0.441609 -0.550919,0.802924 -1.224261,0.802924 -0.673345,0 -1.567691,0.903288 -1.98744,2.007311 -0.419747,1.104023 -0.894782,2.007312 -1.05563,2.007312 -0.160844,0 -0.704022,-0.903289 -1.207049,-2.007312 z M 30.972065,8.4984507 C 31.604718,7.495483 31.503033,6.8404758 30.569788,5.9072312 28.914306,4.2517509 26.626952,5.2027454 26.626952,7.5465104 c 0,2.8895786 2.743716,3.4906786 4.345113,0.9519403 z"
       id="path918" />
    <path
       style="fill:#ffffff;fill-opacity:1;stroke-width:0.769524;stroke-opacity:0"
       d="M 66.739903,112.31028 C 62.887608,104.5605 62.713133,103.9404 62.680211,97.881713 62.64986,92.296094 62.941143,90.92464 65.154943,86.229878 72.040098,71.628671 85.918678,57.730915 101.74667,49.587588 l 7.81865,-4.022607 10.00381,6.21489 c 11.88476,7.383438 19.12902,13.203354 23.90887,19.207991 11.67434,14.665758 14.29944,33.014508 6.18953,43.262998 -4.7663,6.02315 -7.01888,6.408 -21.72635,3.71193 -13.70759,-2.51279 -29.482306,-2.38412 -44.123928,0.35992 -6.119916,1.14696 -11.560231,2.08537 -12.089589,2.08537 -0.529357,0 -2.773849,-3.64401 -4.98776,-8.0978 z M 112.58567,97.050055 c 2.85635,-6.223537 4.2255,-7.697819 8.46764,-9.117808 3.98484,-1.333864 5.06395,-3.097102 3.17373,-5.185781 -0.78847,-0.87125 -2.19893,-1.584092 -3.13435,-1.584092 -3.04825,0 -5.89303,-3.173619 -9.15497,-10.213236 l -3.17152,-6.844481 -2.48325,6.073537 c -2.95004,7.21521 -5.54666,9.949439 -10.643139,11.207197 -3.095126,0.763845 -3.82126,1.269381 -4.038997,2.811963 -0.301873,2.138649 1.56984,3.890734 4.156383,3.890734 2.388021,0 5.507243,2.706149 7.401483,6.42131 2.91381,5.714852 5.29044,9.036452 6.1053,8.532842 0.4388,-0.27119 1.93356,-2.96767 3.32169,-5.992185 z"
       id="path922"
       transform="scale(0.26458333)" />
    <path
       style="fill:#ffffff;fill-opacity:1;stroke-width:0.769524;stroke-opacity:0"
       d="M 66.739903,112.31028 C 62.887608,104.5605 62.713133,103.9404 62.680211,97.881713 62.64986,92.296094 62.941143,90.92464 65.154943,86.229878 72.033184,71.643332 85.880402,57.769892 101.74667,49.568852 l 7.81865,-4.041342 10.00381,6.238353 c 17.0963,10.661217 24.76266,18.058743 30.08897,29.033826 2.76736,5.702279 4.88862,14.025215 4.911,19.268731 0.0202,4.71597 -1.97705,10.48673 -4.91359,14.19763 -4.76316,6.01919 -7.1489,6.41359 -22.26724,3.68113 -13.73555,-2.48255 -28.82854,-2.34634 -43.571018,0.39319 -6.119916,1.13724 -11.560231,2.06771 -12.089589,2.06771 -0.529357,0 -2.773849,-3.64401 -4.98776,-8.0978 z M 112.59135,96.998415 c 2.52758,-5.546406 5.60468,-8.910327 8.15059,-8.910327 0.74251,0 2.16753,-0.670877 3.1667,-1.490837 2.36348,-1.939564 1.31166,-3.8842 -2.85533,-5.279036 -4.3588,-1.459041 -5.60886,-2.878529 -9.13825,-10.376825 l -3.181,-6.758128 -2.46718,6.034234 c -2.93425,7.176579 -5.53691,9.911698 -10.627069,11.167895 -3.095126,0.763845 -3.82126,1.269381 -4.038997,2.811963 -0.303776,2.152129 1.573527,3.890734 4.201118,3.890734 2.301766,0 5.803968,3.056313 7.645358,6.671966 2.96589,5.823696 5.03279,8.766666 5.81669,8.282186 0.4388,-0.27119 1.93612,-2.99091 3.32737,-6.043825 z"
       id="path924"
       transform="scale(0.26458333)" />
    <path
       style="fill:#ffffff;fill-opacity:1;stroke-width:0.769524;stroke-opacity:0"
       d="m 66.739903,112.31028 c -3.85543,-7.75608 -4.027196,-8.36739 -4.07041,-14.486366 -0.04239,-6.001884 0.150227,-6.780972 3.18226,-12.871719 7.461015,-14.98768 21.238448,-28.21403 38.059827,-36.537471 l 5.74382,-2.842118 9.57401,5.966029 c 17.18995,10.711892 25.42852,18.619968 30.48397,29.261054 2.72856,5.743284 4.83364,14.096792 4.85572,19.268731 0.0202,4.71597 -1.97705,10.48673 -4.91359,14.19763 -4.75722,6.01168 -7.17191,6.41276 -22.30565,3.70499 -13.74089,-2.45856 -28.88426,-2.32609 -43.532608,0.38083 -6.119916,1.13092 -11.560231,2.05621 -12.089589,2.05621 -0.529357,0 -2.773849,-3.64401 -4.98776,-8.0978 z M 112.46429,97.052332 c 2.73472,-5.681511 5.76602,-8.964244 8.27765,-8.964244 0.74251,0 2.16753,-0.670877 3.1667,-1.490837 2.36348,-1.939564 1.31166,-3.8842 -2.85533,-5.279036 -4.32595,-1.448046 -5.60509,-2.877869 -8.98803,-10.046859 -1.66834,-3.535489 -3.28396,-6.132631 -3.59027,-5.771428 -0.30631,0.361204 -1.5227,2.991511 -2.7031,5.845127 -2.24519,5.427755 -6.222049,9.817319 -8.894297,9.817319 -0.811835,0 -2.358071,0.40187 -3.436081,0.893044 -3.693268,1.682766 -1.856378,6.03267 2.547493,6.03267 2.522774,0 5.881425,3.478899 8.894675,9.213131 1.56296,2.974301 3.29535,5.407821 3.84977,5.407821 0.55443,0 2.2333,-2.54552 3.73082,-5.656708 z"
       id="path926"
       transform="scale(0.26458333)" />
    <path
       style="fill:#ffffff;fill-opacity:1;stroke-width:0.769524;stroke-opacity:0"
       d="m 68.355291,115.68234 c -4.723405,-8.71263 -5.55771,-11.37675 -5.647289,-18.033004 -0.07851,-5.833569 0.113953,-6.610885 3.143751,-12.697141 7.463053,-14.991776 21.237822,-28.21372 38.070797,-36.5429 l 5.7548,-2.847548 9.48755,5.899458 c 17.1828,10.684439 24.86397,17.970752 30.09391,28.546884 3.74554,7.574335 5.62365,15.950416 5.04207,22.486871 -0.44306,4.97976 -1.67793,8.0616 -4.96031,12.37944 -3.99477,5.25494 -7.29242,5.72079 -21.99071,3.10654 -12.68885,-2.25685 -28.925592,-2.23957 -41.255011,0.0439 -4.867238,0.90143 -10.252896,1.84413 -11.96813,2.09489 l -3.118606,0.45592 z M 111.92478,97.925262 c 2.84307,-6.024144 6.10226,-9.837174 8.40834,-9.837174 0.96736,0 2.57635,-0.670877 3.57552,-1.490837 2.36348,-1.939564 1.31166,-3.8842 -2.85533,-5.279036 -4.32595,-1.448046 -5.60509,-2.877869 -8.98803,-10.046859 -1.66834,-3.535489 -3.28396,-6.132631 -3.59027,-5.771428 -0.30631,0.361204 -1.5227,2.991511 -2.7031,5.845127 -2.32075,5.61042 -6.239138,9.817319 -9.144044,9.817319 -2.12701,0 -5.146351,2.024995 -5.146351,3.451526 0,1.642296 2.229527,3.474188 4.228304,3.474188 2.753988,0 5.886421,3.119408 9.196911,9.158662 1.64681,3.00426 3.3916,5.46229 3.87729,5.46229 0.4857,0 1.89904,-2.1527 3.14076,-4.783778 z"
       id="path928"
       transform="scale(0.26458333)" />
    <path
       style="fill:#ffffff;fill-opacity:1;stroke-width:0.272068;stroke-opacity:0"
       d="m 107.69817,101.26155 c -0.43156,-0.59576 -1.74075,-2.931762 -2.90931,-5.191123 -3.06095,-5.918249 -5.438638,-8.214629 -8.911177,-8.606449 -1.448074,-0.163392 -2.680298,-0.6475 -3.518274,-1.382236 -0.703782,-0.617076 -0.615019,-2.123433 0.171468,-2.90992 0.754075,-0.754075 3.050427,-1.501621 4.639098,-1.510197 1.631657,-0.0088 3.278885,-0.88074 5.014195,-2.65417 1.84222,-1.882699 3.01171,-4.058315 4.96824,-9.242431 0.80467,-2.132119 1.54139,-3.876753 1.63713,-3.876965 0.23042,-5.12e-4 1.08685,1.843598 2.43719,5.247868 1.5963,4.024342 2.82559,6.079901 4.84937,8.108844 1.82344,1.828085 2.60651,2.232494 4.9273,2.544637 1.44774,0.194719 2.77234,0.934823 3.40719,1.903729 1.0424,1.590905 -0.58093,3.286529 -3.54879,3.706831 -0.99168,0.140439 -2.16165,0.440779 -2.59993,0.667422 -2.22167,1.148874 -4.28711,3.845088 -5.85756,7.646454 -1.78204,4.313516 -3.07278,6.630906 -3.69328,6.630906 -0.12551,0 -0.58129,-0.48744 -1.01286,-1.0832 z"
       id="path966"
       transform="scale(0.26458333)" />
    <path
       style="fill:#ffffff;fill-opacity:0.87;stroke-width:0.272068;stroke-opacity:0"
       d="m 192.96697,212.52064 c -2.83733,-1.49892 -6.01263,-3.03331 -7.05623,-3.40976 -14.31285,-5.16293 -63.61463,-10.55186 -85.86542,-9.38552 -19.996436,1.04818 -48.038496,4.99498 -59.958303,8.43888 -1.967323,0.5684 -3.946386,1.47875 -7.099004,3.26544 -2.576461,1.46017 -3.556957,1.59547 -5.411003,0.74666 -2.646367,-1.21155 -10.659456,-9.50389 -12.286473,-12.71465 -1.018423,-2.00976 -1.129431,-3.40775 -0.40442,-5.09308 1.490038,-3.46369 6.746083,-6.80036 20.67579,-13.12553 12.979452,-5.89367 17.347635,-7.35142 22.079028,-7.36819 3.112417,-0.011 4.682784,0.24583 10.263619,1.6788 5.379573,1.38129 8.287343,1.84788 12.823961,2.05775 7.915418,0.36619 13.875453,-1.44133 13.875453,-4.20806 0,-0.68125 -0.217431,-0.98822 -1.156288,-1.63244 -2.329041,-1.59812 -7.097177,-3.7561 -13.94347,-6.31057 -9.017393,-3.36454 -15.749652,-7.08318 -16.919695,-9.3458 -1.014174,-1.9612 0.375312,-8.37786 3.554673,-16.41552 3.789713,-9.58069 3.648986,-10.70108 -2.276113,-18.12105 -1.628336,-2.03916 -3.452172,-4.53798 -4.052965,-5.55294 C 53.527731,105.4119 53.813209,91.459328 60.59539,77.645182 65.311196,68.039886 71.60677,60.724741 81.680752,53.14503 92.925596,44.684358 94.174871,42.592865 92.839242,34.463851 c -1.254964,-7.63808 0.27309,-13.380103 4.742864,-17.822413 3.210114,-3.190391 6.671654,-4.623173 11.169384,-4.623173 2.75344,0 4.84699,0.488939 7.54828,1.762867 6.77897,3.196959 8.56654,6.379981 8.07793,14.383897 -0.12928,2.117617 -0.2394,5.571116 -0.24472,7.674443 l -0.01,3.82423 1.04048,2.104109 c 1.32285,2.675106 4.31796,5.856581 10.69239,11.357695 5.32969,4.599509 8.59901,7.763349 11.64139,11.265794 12.01159,13.828005 18.66532,30.469138 15.9812,39.96941 -0.79911,2.82843 -2.77706,7.64372 -4.25679,10.36312 -0.65138,1.1971 -2.4256,4.07421 -3.94271,6.39359 -5.95524,9.10449 -6.21736,10.80309 -3.00183,19.45284 4.57377,12.30342 4.65519,12.95576 1.98733,15.92306 -4.584,5.09851 -13.31223,9.64057 -22.52357,11.72098 -1.94528,0.43935 -4.29855,1.04984 -5.22949,1.35664 -1.74764,0.57596 -3.34065,1.77826 -3.34065,2.52129 0,1.34513 3.32138,2.74351 8.78989,3.70073 5.54613,0.97081 8.46125,1.18245 22.76996,1.65311 16.80847,0.55289 25.38805,2.23297 38.73259,7.58475 14.51669,5.82186 19.56576,8.4123 20.71022,10.62545 1.20136,2.32316 0.23368,3.76056 -8.38479,12.4548 -3.89374,3.92798 -7.21086,7.14022 -7.37137,7.13833 -0.16052,-0.002 -2.61329,-1.22985 -5.45061,-2.72876 z m 7.03788,-10.7059 c 1.39894,-0.81983 1.7938,-1.3911 1.7938,-2.59522 0,-5.11262 -21.84869,-12.10672 -44.24704,-14.16417 -1.66583,-0.15302 -7.48128,-0.39512 -12.92322,-0.53801 -10.48272,-0.27524 -14.87519,-0.67562 -19.46636,-1.77439 -3.65013,-0.87355 -5.50014,-1.65124 -9.00978,-3.78743 -3.41263,-2.07715 -4.77822,-2.60836 -6.70542,-2.60836 -2.69937,0 -4.1303,0.61991 -14.925764,6.46607 -2.215335,1.19969 -5.214882,2.58642 -6.665659,3.08161 -2.397751,0.81843 -2.922478,0.89938 -5.766554,0.88967 -3.504907,-0.012 -4.261728,-0.13368 -12.515115,-2.01261 -8.826883,-2.00949 -10.446015,-2.24118 -14.691656,-2.10229 -3.220158,0.10535 -4.004821,0.22928 -6.365454,1.00542 -6.778001,2.22849 -19.640865,8.80809 -22.801148,11.66322 -0.746308,0.67424 -1.032915,1.15329 -1.032915,1.72646 0,0.93555 0.645288,2.58055 1.302698,3.3209 1.282971,1.44483 4.72661,1.97961 7.165212,1.11272 3.753915,-1.33447 14.157606,-2.75151 32.886383,-4.47931 18.531392,-1.70959 31.931883,-3.85832 35.341012,-5.66683 0.53901,-0.28594 1.58232,-0.84072 2.31846,-1.23284 2.62272,-1.39704 7.1163,-0.88991 15.18454,1.71366 9.86394,3.18304 20.99196,4.71754 37.6185,5.1874 15.78157,0.44599 24.21366,1.4883 32.01461,3.9574 4.69875,1.48722 6.06256,1.75331 8.43511,1.64575 1.37572,-0.0624 2.11669,-0.25849 3.05576,-0.80882 z m -91.11733,-39.3493 c 11.79847,-0.78034 25.81472,-2.83141 29.96804,-4.38537 1.61567,-0.60449 3.36026,-2.07087 3.36026,-2.82439 0,-1.34142 -5.15156,-4.43849 -9.92206,-5.96505 -9.16439,-2.93262 -23.00485,-4.08224 -34.386503,-2.85623 -8.741294,0.9416 -18.082132,4.00303 -20.453137,6.70345 -2.374607,2.70453 0.181961,4.49639 9.610708,6.73598 2.213055,0.52567 5.273817,1.31619 6.801692,1.75673 1.527876,0.44053 3.084032,0.85456 3.458125,0.92005 1.304968,0.22845 7.512455,0.18273 11.562875,-0.0852 z M 78.549807,144.09483 c 5.308588,-1.82642 16.78259,-4.88224 23.127923,-6.15956 2.66697,-0.53686 3.93193,-0.62803 8.57013,-0.61769 6.22103,0.0139 8.26172,0.35194 17.13157,2.83801 12.60475,3.53289 16.86936,3.26976 15.9165,-0.98208 -0.15218,-0.67903 -0.53583,-1.74443 -0.85257,-2.36754 -1.05032,-2.06625 -3.60971,-5.73922 -4.92458,-7.06722 -3.60527,-3.64131 -9.7927,-4.44266 -32.3518,-4.18999 -12.796293,0.14333 -16.110116,0.35924 -19.949348,1.29978 -3.876456,0.94966 -6.702543,3.07915 -8.308507,6.26054 -1.131922,2.24233 -2.929966,7.73648 -3.153045,9.63452 -0.310453,2.6415 0.43375,2.85127 4.793727,1.35123 z m 3.976594,-24.86958 c 14.949454,-2.67332 14.245849,-2.59851 24.320619,-2.58574 9.72549,0.0123 10.25106,0.067 23.66989,2.46429 4.5211,0.80769 6.29875,1.00255 9.38633,1.02889 3.65317,0.0312 3.86459,0.002 5.16929,-0.70314 1.8149,-0.98144 3.0077,-2.0879 5.13105,-4.7596 3.09834,-3.89851 4.37425,-7.28525 4.6946,-12.46124 0.42136,-6.808057 -1.30247,-15.127428 -4.50976,-21.764637 -2.44621,-5.062198 -5.53404,-9.295863 -10.28894,-14.106931 -5.5208,-5.586021 -9.73625,-8.665702 -23.11781,-16.889153 l -7.41371,-4.555994 -6.73088,3.46149 c -7.70844,3.964212 -9.923251,5.285827 -13.666097,8.154786 -10.093579,7.736915 -19.90405,19.336176 -24.385846,28.832243 -2.186929,4.63368 -2.823755,7.3374 -2.827241,12.003358 -0.0049,6.538098 1.669272,11.609138 6.591118,19.964598 1.889081,3.20696 2.348862,3.80895 2.909155,3.80895 0.26787,0 5.248575,-0.85148 11.068232,-1.89217 z M 109.98396,37.987174 c 2.9045,-0.756526 5.63462,-3.029632 7.45033,-6.203164 2.00489,-3.504172 1.65981,-5.827009 -1.33384,-8.978546 -2.31878,-2.441068 -4.23804,-3.466635 -6.83526,-3.652466 -3.48664,-0.249468 -6.04484,1.253407 -7.63631,4.486126 -0.78017,1.584764 -0.90096,2.128845 -0.99558,4.484537 -0.0897,2.232189 -0.005,2.998721 0.50272,4.579307 0.94273,2.931892 2.80027,4.80565 5.36207,5.408883 1.48368,0.349366 1.6949,0.341811 3.48587,-0.124677 z"
       id="path968"
       transform="scale(0.26458333)" />
    <path
       style="fill:#000000;fill-opacity:1;stroke-width:0.272068;stroke-opacity:0"
       d="m 69.89958,118.55682 c -1.917775,-3.0603 -4.443185,-7.99614 -5.580415,-10.90675 -1.515307,-3.87826 -1.905173,-6.36909 -1.745592,-11.152467 0.16721,-5.012013 0.476418,-6.207922 2.884725,-11.157089 3.38075,-6.947576 8.32919,-13.612005 15.26235,-20.554929 4.560598,-4.567022 8.436843,-7.810357 12.522982,-10.478241 2.823796,-1.843687 14.65336,-8.138841 15.83373,-8.425985 0.59559,-0.144887 1.31373,0.169193 3.80895,1.665854 5.6029,3.360685 11.73611,7.227443 15.17149,9.565063 15.80434,10.754134 24.32787,23.222913 26.15025,38.254287 0.41898,3.455869 0.18855,9.578157 -0.43671,11.602887 -1.03678,3.35732 -3.37416,7.05488 -6.32511,10.00583 -2.45969,2.45969 -3.0146,2.64943 -7.67902,2.62567 -3.41891,-0.0174 -5.06969,-0.20714 -12.37908,-1.42278 -10.5007,-1.74638 -12.77419,-1.95746 -21.08692,-1.95774 -8.777011,-2.7e-4 -10.887568,0.25869 -30.637736,3.75969 l -4.384872,0.77728 z m 40.1477,-17.01058 c 0.48344,-0.73846 1.60246,-2.934045 2.48672,-4.879087 1.81624,-3.995045 2.74273,-5.462451 4.38655,-6.947538 1.33737,-1.208231 2.3417,-1.670237 4.21002,-1.936657 2.36802,-0.337676 3.94498,-1.690835 3.94498,-3.38511 0,-1.378825 -1.50948,-2.484549 -4.13544,-3.02928 -4.02507,-0.834968 -6.53002,-3.865318 -9.98563,-12.080049 -1.23412,-2.933782 -1.97145,-4.120194 -2.39712,-3.857116 -0.14784,0.09137 -1.09275,2.252366 -2.09982,4.802219 -3.11624,7.890252 -5.46285,10.466067 -10.123088,11.111874 -2.101663,0.291246 -4.005405,1.121607 -4.442063,1.937511 -0.154641,0.28895 -0.281166,1.01225 -0.281166,1.607333 0,1.432434 1.045393,2.336009 3.194075,2.760766 2.385536,0.471578 3.087923,0.749052 4.476757,1.768514 1.679085,1.232516 3.020745,3.072855 5.257515,7.211704 2.39139,4.424956 3.61401,6.257556 4.17472,6.257556 0.24971,0 0.84956,-0.60419 1.33299,-1.34264 z"
       id="path972"
       transform="scale(0.26458333)" />
    <path
       style="fill:#000000;fill-opacity:1;stroke-width:0.272068;stroke-opacity:0"
       d="m 74.380268,144.33386 c -0.358775,-0.35877 -0.169041,-1.97686 0.504231,-4.30018 2.713075,-9.36226 5.32765,-11.92849 13.646853,-13.3945 2.346343,-0.41347 4.825766,-0.47186 20.356168,-0.47939 15.57735,-0.008 17.97615,0.0469 20.13301,0.45696 3.36156,0.6391 5.37352,1.37843 6.99975,2.57219 2.63792,1.93641 6.77952,8.47244 6.84042,10.79515 0.0212,0.80764 -0.12793,1.17543 -0.64878,1.60026 -0.61722,0.50344 -0.93761,0.53828 -3.66902,0.39899 -1.91929,-0.0979 -3.96861,-0.40912 -5.71342,-0.86774 -9.15404,-2.40609 -13.61508,-3.47857 -15.90571,-3.82387 -3.07271,-0.46321 -9.98154,-0.51563 -12.9818,-0.0985 -4.890144,0.67988 -15.696773,3.36674 -23.971368,5.96003 -4.272619,1.33905 -5.229756,1.54118 -5.590334,1.1806 z"
       id="path974"
       transform="scale(0.26458333)" />
    <path
       style="fill:#000000;fill-opacity:1;stroke-width:0.272068;stroke-opacity:0"
       d="m 96.372408,161.89792 c -0.448911,-0.14022 -4.052752,-1.11058 -8.008534,-2.15636 -9.203335,-2.43304 -11.17224,-3.29688 -11.17224,-4.90173 0,-2.29604 7.353552,-5.58228 16.324063,-7.29508 4.801432,-0.91677 9.306993,-1.20972 16.138303,-1.04932 11.80225,0.27713 20.68411,1.99168 27.19408,5.24955 2.62494,1.31364 4.8236,2.90339 4.8236,3.48773 0,0.91784 -2.44308,2.31807 -5.48945,3.14622 -4.15132,1.12854 -14.69439,2.6014 -24.38638,3.40676 -5.45067,0.45293 -14.130534,0.51609 -15.423442,0.11223 z"
       id="path976"
       transform="scale(0.26458333)" />
    <path
       style="fill:#000000;fill-opacity:1;stroke-width:0.272068;stroke-opacity:0"
       d="m 193.77265,202.00655 c -0.29927,-0.0682 -2.19695,-0.61683 -4.21705,-1.21925 -9.03192,-2.69347 -14.96706,-3.43972 -33.19226,-4.17336 -13.12889,-0.5285 -16.21522,-0.80432 -24.62213,-2.20047 -4.55962,-0.75722 -7.77654,-1.52226 -13.11059,-3.11794 -6.51171,-1.94797 -8.02774,-2.22594 -11.51154,-2.11068 -3.08135,0.10194 -3.1597,0.12068 -5.16928,1.23664 -4.331324,2.40525 -14.104987,4.05417 -37.545348,6.33428 -17.945033,1.74557 -26.666814,2.93087 -31.133117,4.23105 -2.018858,0.5877 -4.170659,0.50262 -5.604197,-0.22158 -2.219676,-1.12134 -3.150673,-3.58885 -1.828285,-4.84566 3.215208,-3.05578 18.184877,-10.5808 24.418078,-12.2746 1.870846,-0.50838 2.93619,-0.62158 5.577388,-0.59267 3.432765,0.0376 4.733967,0.25076 16.324063,2.67441 11.622547,2.43043 14.019037,2.12779 23.527278,-2.97109 8.69524,-4.66289 10.90902,-5.68543 12.58158,-5.81137 2.67415,-0.20136 3.75169,0.1161 7.0552,2.07856 4.01865,2.3873 5.76994,3.14365 9.22347,3.98346 4.36464,1.06136 8.22085,1.46915 16.76633,1.77302 14.89053,0.52949 20.9602,1.02502 28.59436,2.33445 14.38758,2.46781 27.26485,6.94662 30.73576,10.69013 1.3491,1.45506 0.2592,3.45881 -2.22106,4.08335 -1.19673,0.30134 -3.58076,0.36253 -4.64865,0.11932 z"
       id="path978"
       transform="scale(0.26458333)" />
    <path
       style="fill:#000000;fill-opacity:1;stroke-width:0.272068;stroke-opacity:0"
       d="m 105.62271,37.362122 c -1.44181,-0.69003 -2.95651,-2.309988 -3.7275,-3.986541 -0.5424,-1.17946 -0.62558,-1.794449 -0.62558,-4.625152 0,-2.851933 0.0815,-3.445159 0.64467,-4.690894 1.2448,-2.753581 3.80529,-4.423374 6.7829,-4.423374 2.51842,0 4.52745,0.997288 6.82133,3.386119 2.9871,3.110759 3.32858,4.859181 1.59372,8.160123 -2.52677,4.807721 -8.09664,7.80351 -11.48954,6.179719 z"
       id="path980"
       transform="scale(0.26458333)" />
  </g>
</svg>
