<svg
   xmlns:dc="http://purl.org/dc/elements/1.1/"
   xmlns:cc="http://creativecommons.org/ns#"
   xmlns:rdf="http://www.w3.org/1999/02/22-rdf-syntax-ns#"
   xmlns:svg="http://www.w3.org/2000/svg"
   xmlns="http://www.w3.org/2000/svg"
   xmlns:sodipodi="http://sodipodi.sourceforge.net/DTD/sodipodi-0.dtd"
   xmlns:inkscape="http://www.inkscape.org/namespaces/inkscape"
   viewBox="0 0 59.531249 59.531252"
   version="1.1"
   id="svg414"
   inkscape:version="1.0.2 (e86c870879, 2021-01-15, custom)"
   sodipodi:docname="BishopWhite.svg">
  <defs
     id="defs408">
    <inkscape:path-effect
       effect="powermask"
       id="path-effect1337"
       is_visible="true"
       lpeversion="1"
       uri="#mask-powermask-path-effect1337"
       invert="false"
       hide_mask="false"
       background="true"
       background_color="#ffffffff" />
    <mask
       maskUnits="userSpaceOnUse"
       id="mask-powermask-path-effect1337">
      <rect
         style="fill:#000000;fill-opacity:1;stroke:#000000;stroke-width:0.358884;stroke-opacity:1"
         id="rect1335"
         width="44.732449"
         height="14.099051"
         x="7.3811173"
         y="42.077751" />
    </mask>
  </defs>
  <sodipodi:namedview
     id="base"
     pagecolor="#ffffff"
     bordercolor="#666666"
     borderopacity="1.0"
     inkscape:pageopacity="0.0"
     inkscape:pageshadow="2"
     inkscape:zoom="1.2995051"
     inkscape:cx="53.005329"
     inkscape:cy="112.71285"
     inkscape:document-units="mm"
     inkscape:current-layer="layer1"
     inkscape:document-rotation="0"
     showgrid="false"
     units="px"
     inkscape:window-width="1920"
     inkscape:window-height="1017"
     inkscape:window-x="-8"
     inkscape:window-y="-8"
     inkscape:window-maximized="1" />
  <metadata
     id="metadata411">
    <rdf:RDF>
      <cc:Work
         rdf:about="">
        <dc:format>image/svg+xml</dc:format>
        <dc:type
           rdf:resource="http://purl.org/dc/dcmitype/StillImage" />
        <dc:title />
      </cc:Work>
    </rdf:RDF>
  </metadata>
  <g
     inkscape:label="Vague Outline"
     inkscape:groupmode="layer"
     id="layer1">
    <path
       style="fill:#000000;stroke-width:0.802922"
       d="M 5.3302175,54.478549 C 2.54948,51.576084 3.1208821,50.72032 9.8585837,47.696619 c 4.4790333,-2.010065 5.1753133,-2.112653 8.3349573,-1.228007 3.257277,0.911982 6.82756,0.562767 6.82756,-0.667812 0,-0.308196 -1.826312,-1.209006 -4.058469,-2.001798 -2.232158,-0.792795 -4.241869,-1.919371 -4.466023,-2.503512 -0.224179,-0.584133 0.15523,-2.408995 0.843077,-4.055243 1.210478,-2.897083 1.186304,-3.069625 -0.752988,-5.374345 -3.999709,-4.753384 -1.810878,-12.832191 4.793624,-17.692896 3.26189,-2.40065 3.53411,-2.862021 3.110894,-5.2724839 -0.807605,-4.599754 3.586661,-7.439283 7.30497,-4.7203902 1.090852,0.7976538 1.374031,1.8182269 1.116525,4.0239669 -0.317577,2.7202632 -0.03075,3.2202492 3.606914,6.2875772 4.082749,3.442622 6.920366,8.338572 6.95111,11.993261 0.0097,1.152798 -0.916377,3.47234 -2.057947,5.154535 -1.994547,2.939134 -2.028505,3.178394 -0.869758,6.128279 1.172705,2.985413 1.150288,3.11342 -0.816106,4.660185 -1.112065,0.874752 -3.276875,1.825881 -4.810692,2.113627 -4.726514,0.886699 -1.659044,2.273085 5.174776,2.338813 4.428889,0.0426 7.472975,0.568494 10.623686,1.835358 7.139802,2.870822 7.199327,2.951161 4.323898,5.836004 l -2.500966,2.509148 -2.718048,-1.435845 C 47.498099,54.398689 36.314167,52.922228 28.634261,52.828236 23.225455,52.762011 11.102192,54.490306 9.4690317,55.560394 7.6644357,56.74281 7.4444126,56.685298 5.3302175,54.478549 Z M 18.0559,52.037286 c 4.338895,-0.359687 8.378121,-1.059994 8.976058,-1.556236 0.813529,-0.675167 2.017939,-0.58625 4.785223,0.353267 2.033934,0.690537 6.279326,1.255524 9.434202,1.255524 3.154876,0 6.935832,0.433816 8.402127,0.964034 1.929905,0.697864 2.908496,0.721525 3.544313,0.0857 1.583276,-1.583277 -7.33081,-4.261438 -14.183906,-4.261438 -4.245449,0 -6.616905,-0.391065 -8.044728,-1.326611 -1.918549,-1.257082 -2.195624,-1.230522 -5.286612,0.506707 -3.021453,1.698155 -3.567576,1.76 -7.40735,0.838852 -3.79165,-0.909604 -4.468647,-0.842521 -7.933398,0.786102 -2.0834013,0.979315 -3.7879995,2.041878 -3.7879995,2.361252 0,1.130414 1.1368015,1.694292 2.3668322,1.174005 C 9.6061437,52.92848 13.717001,52.396969 18.0559,52.03728 Z m 18.914658,-10.34859 c 0.929648,-0.520254 0.812345,-0.828791 -0.603106,-1.586315 -2.75687,-1.475432 -9.010141,-1.924128 -12.751467,-0.914964 -3.919145,1.057127 -4.397252,2.216604 -1.204387,2.920801 1.214422,0.267839 2.569357,0.6264 3.010967,0.796785 1.216385,0.469314 10.232933,-0.480361 11.547993,-1.216307 z M 25.87684,36.674178 c 2.880203,-0.668082 4.558185,-0.588805 7.828518,0.369866 4.47435,1.311619 5.225992,0.748585 3.022877,-2.264354 -0.973948,-1.331956 -2.135595,-1.558578 -7.989101,-1.558578 -7.126268,0 -7.969398,0.333301 -8.939454,3.533888 -0.501579,1.654893 -0.372175,1.845979 0.913409,1.348783 0.823778,-0.318591 3.147464,-0.961912 5.163751,-1.429605 z m -2.222234,-5.498366 c 3.256719,-0.602038 5.972322,-0.582799 9.559745,0.06774 4.809687,0.872166 5.071446,0.833781 6.520902,-0.956216 1.116376,-1.378669 1.413013,-2.725949 1.137792,-5.1677 -0.474633,-4.210919 -3.14978,-7.815679 -8.02739,-10.816902 l -3.852118,-2.370231 -3.104335,1.583714 c -3.969424,2.02505 -8.733532,7.577162 -9.357997,10.905851 -0.310413,1.654649 -0.01887,3.48223 0.81167,5.088356 0.712837,1.37847 1.401086,2.506313 1.529446,2.506313 0.128373,0 2.280388,-0.378411 4.782285,-0.84091 z m 3.921365,-5.983951 C 27.072947,24.087838 26.11166,23.18455 25.43978,23.18455 c -0.671885,0 -1.221604,-0.361315 -1.221604,-0.802924 0,-0.44161 0.652885,-0.802927 1.450851,-0.802927 0.844211,0 1.801426,-0.923247 2.289283,-2.208043 l 0.838426,-2.208042 0.902545,2.208042 c 0.4964,1.214426 1.453464,2.208043 2.126809,2.208043 0.673342,0 1.224261,0.361317 1.224261,0.802927 0,0.441609 -0.550919,0.802924 -1.224261,0.802924 -0.673345,0 -1.567691,0.903288 -1.98744,2.007311 -0.419747,1.104023 -0.894782,2.007312 -1.05563,2.007312 -0.160844,0 -0.704022,-0.903289 -1.207049,-2.007312 z M 30.972065,8.4984507 C 31.604718,7.495483 31.503033,6.8404758 30.569788,5.9072312 28.914306,4.2517509 26.626952,5.2027454 26.626952,7.5465104 c 0,2.8895786 2.743716,3.4906786 4.345113,0.9519403 z"
       id="path918" />
  </g>
</svg>
