<svg
   xmlns:dc="http://purl.org/dc/elements/1.1/"
   xmlns:cc="http://creativecommons.org/ns#"
   xmlns:rdf="http://www.w3.org/1999/02/22-rdf-syntax-ns#"
   xmlns:svg="http://www.w3.org/2000/svg"
   xmlns="http://www.w3.org/2000/svg"
   xmlns:sodipodi="http://sodipodi.sourceforge.net/DTD/sodipodi-0.dtd"
   xmlns:inkscape="http://www.inkscape.org/namespaces/inkscape"
   viewBox="0 0 59.531249 59.531252"
   version="1.1"
   id="svg414"
   inkscape:version="1.0.2 (e86c870879, 2021-01-15, custom)"
   sodipodi:docname="KingBlack.svg">
  <defs
     id="defs408">
    <inkscape:path-effect
       effect="powermask"
       id="path-effect1337"
       is_visible="true"
       lpeversion="1"
       uri="#mask-powermask-path-effect1337"
       invert="false"
       hide_mask="false"
       background="true"
       background_color="#ffffffff" />
    <mask
       maskUnits="userSpaceOnUse"
       id="mask-powermask-path-effect1337">
      <rect
         style="fill:#000000;fill-opacity:1;stroke:#000000;stroke-width:0.358884;stroke-opacity:1"
         id="rect1335"
         width="44.732449"
         height="14.099051"
         x="7.3811173"
         y="42.077751" />
    </mask>
  </defs>
  <sodipodi:namedview
     id="base"
     pagecolor="#ffffff"
     bordercolor="#666666"
     borderopacity="1.0"
     inkscape:pageopacity="0.0"
     inkscape:pageshadow="2"
     inkscape:zoom="2.8284271"
     inkscape:cx="69.276804"
     inkscape:cy="113.00368"
     inkscape:document-units="mm"
     inkscape:current-layer="layer1"
     inkscape:document-rotation="0"
     showgrid="false"
     units="px"
     inkscape:window-width="1920"
     inkscape:window-height="1017"
     inkscape:window-x="-8"
     inkscape:window-y="-8"
     inkscape:window-maximized="1" />
  <metadata
     id="metadata411">
    <rdf:RDF>
      <cc:Work
         rdf:about="">
        <dc:format>image/svg+xml</dc:format>
        <dc:type
           rdf:resource="http://purl.org/dc/dcmitype/StillImage" />
        <dc:title />
      </cc:Work>
    </rdf:RDF>
  </metadata>
  <g
     inkscape:label="Vague Outline"
     inkscape:groupmode="layer"
     id="layer1">
    <svg
   xmlns:dc="http://purl.org/dc/elements/1.1/"
   xmlns:cc="http://creativecommons.org/ns#"
   xmlns:rdf="http://www.w3.org/1999/02/22-rdf-syntax-ns#"
   xmlns:svg="http://www.w3.org/2000/svg"
   xmlns="http://www.w3.org/2000/svg"
   xmlns:sodipodi="http://sodipodi.sourceforge.net/DTD/sodipodi-0.dtd"
   xmlns:inkscape="http://www.inkscape.org/namespaces/inkscape"
   viewBox="0 0 59.531249 59.531252"
   version="1.1"
   id="svg414"
   inkscape:version="1.0.2 (e86c870879, 2021-01-15, custom)"
   sodipodi:docname="KingWhite.svg">
  <defs
     id="defs408">
    <inkscape:path-effect
       effect="powermask"
       id="path-effect1337"
       is_visible="true"
       lpeversion="1"
       uri="#mask-powermask-path-effect1337"
       invert="false"
       hide_mask="false"
       background="true"
       background_color="#ffffffff" />
    <mask
       maskUnits="userSpaceOnUse"
       id="mask-powermask-path-effect1337">
      <rect
         style="fill:#000000;fill-opacity:1;stroke:#000000;stroke-width:0.358884;stroke-opacity:1"
         id="rect1335"
         width="44.732449"
         height="14.099051"
         x="7.3811173"
         y="42.077751" />
    </mask>
  </defs>
  <sodipodi:namedview
     id="base"
     pagecolor="#ffffff"
     bordercolor="#666666"
     borderopacity="1.0"
     inkscape:pageopacity="0.0"
     inkscape:pageshadow="2"
     inkscape:zoom="2.8284271"
     inkscape:cx="109.49952"
     inkscape:cy="106.76096"
     inkscape:document-units="mm"
     inkscape:current-layer="layer1"
     inkscape:document-rotation="0"
     showgrid="false"
     units="px"
     inkscape:window-width="1920"
     inkscape:window-height="1017"
     inkscape:window-x="-8"
     inkscape:window-y="-8"
     inkscape:window-maximized="1" />
  <metadata
     id="metadata411">
    <rdf:RDF>
      <cc:Work
         rdf:about="">
        <dc:format>image/svg+xml</dc:format>
        <dc:type
           rdf:resource="http://purl.org/dc/dcmitype/StillImage" />
        <dc:title />
      </cc:Work>
    </rdf:RDF>
  </metadata>
  <g
     inkscape:label="Vague Outline"
     inkscape:groupmode="layer"
     id="layer1">
    <path
       style="fill:#000000;stroke-width:1.00309"
       d="m 22.496543,54.749599 c -1.103406,-0.266296 -3.92461,-0.979569 -6.269346,-1.585028 l -4.263155,-1.100836 v -5.773906 c 0,-5.066055 -0.491892,-6.510516 -4.0123834,-11.78249 C 3.1149942,27.264377 2.6599978,22.780035 6.4048194,19.261958 c 2.0427052,-1.919024 3.2311942,-2.229953 6.9300476,-1.813039 2.455478,0.276758 5.816749,1.466093 7.469488,2.64295 1.652736,1.176854 3.183565,2.139734 3.401834,2.139734 0.21826,0 0.396853,-1.638032 0.396853,-3.640073 0,-2.540145 0.666836,-4.180043 2.206809,-5.427037 2.925337,-2.368797 2.898389,-5.7188045 -0.05016,-6.234616 -2.177259,-0.3808854 -2.186115,-0.4250456 -0.250794,-1.2504676 1.103408,-0.4706011 2.379102,-1.3399595 2.834879,-1.9319026 0.575747,-0.7477551 0.983982,-0.6935443 1.337461,0.1776188 0.279831,0.6896278 1.148249,1.2538685 1.929826,1.2538685 0.781575,0 1.421049,0.4513948 1.421049,1.003094 0,0.551703 -0.677086,1.0030978 -1.504643,1.0030978 -2.235564,0 -1.835067,3.9247871 0.601857,5.8980901 1.454865,1.178078 2.106501,2.856909 2.106501,5.427039 0,2.046715 0.160529,3.7213 0.356678,3.7213 0.196196,0 2.019602,-1.128481 4.052052,-2.507741 4.965762,-3.369858 10.650711,-3.388381 13.993495,-0.04561 3.640916,3.640914 3.217724,7.688992 -1.550236,14.829073 -3.452394,5.169998 -4.012384,6.769765 -4.012384,11.462492 0,5.314174 -0.09254,5.492573 -3.612682,6.963376 -3.627243,1.515565 -18.214802,2.721812 -21.966247,1.816395 z m 20.259914,-3.278301 c 4.482731,-2.508665 -15.191049,-4.276992 -23.11249,-2.07741 -2.120615,0.588847 -3.592626,1.333663 -3.271134,1.655155 2.196895,2.196895 22.628217,2.523887 26.383624,0.422255 z M 30.019758,46.305889 c 3.686549,0 8.805827,0.632912 11.376171,1.406473 3.827543,1.15192 4.673351,1.166963 4.673351,0.0831 0,-1.743155 -8.351462,-3.495782 -16.657802,-3.495782 -7.806591,0 -15.441248,1.746212 -15.441248,3.531747 0,1.030747 0.931634,1.00701 4.673355,-0.11909 2.570344,-0.773562 7.689622,-1.406473 11.376173,-1.406473 z m 0,-3.510834 c 4.689469,0 10.219033,0.358991 12.287917,0.797777 3.327366,0.70568 3.761605,0.57332 3.761605,-1.14655 0,-2.711475 -2.113483,-3.333652 -13.040237,-3.838845 -12.736282,-0.588853 -18.449759,0.47586 -18.885667,3.519372 -0.30944,2.16064 -0.106904,2.246059 3.510831,1.480584 2.111583,-0.446784 7.676079,-0.812338 12.365551,-0.812338 z m -8.52631,-5.912587 c 6.593564,-1.164563 7.000785,-1.389072 6.679167,-3.682366 -0.880358,-6.27733 -7.731205,-12.835799 -14.332993,-13.721285 -4.7038234,-0.630913 -7.8941514,1.664652 -7.8941514,5.680155 0,2.558218 6.3644254,13.199745 7.8006384,13.042913 0.399116,-0.0436 3.885423,-0.63732 7.747339,-1.319417 z M 50.55656,33.028264 c 3.882317,-5.764908 4.415777,-9.166642 1.877374,-11.971547 -5.219571,-5.767562 -19.241876,2.546722 -20.567035,12.194862 -0.321647,2.341768 0.05466,2.563445 6.177621,3.639145 3.586064,0.630011 7.072365,1.200588 7.747337,1.267941 0.674971,0.06737 2.819088,-2.241327 4.764703,-5.130401 z M 32.361064,24.569525 c 1.324487,-4.6559 1.392834,-6.156134 0.377036,-8.275535 -0.682402,-1.423783 -1.905653,-2.588698 -2.718339,-2.588698 -0.812687,0 -2.035938,1.164915 -2.71834,2.588698 -1.015805,2.119401 -0.947453,3.619635 0.377038,8.275535 0.889771,3.12776 1.94336,5.686838 2.341306,5.686838 0.397946,0 1.451535,-2.559078 2.341305,-5.686838 z"
       id="path996" />
  </g>
</svg>
	  
	  <path
		 style="fill:#ffffff;fill-opacity:1;stroke-width:0.25;stroke-opacity:0"
		 d="m 50.530732,143.69347 c -5.446258,-3.34861 -20.399225,-27.07784 -25.851612,-41.02456 -1.772296,-4.533373 -2.125812,-6.226055 -1.949003,-9.332087 0.189332,-3.326034 0.691547,-5.227771 2.219036,-8.402827 1.07904,-2.242907 1.545286,-2.894678 3.415599,-4.774707 3.173489,-3.189976 6.784292,-5.101622 11.642711,-6.163931 2.475667,-0.541313 8.310122,-0.723286 11.313232,-0.352853 19.761637,2.437592 40.622259,17.998474 50.321175,37.536845 2.82672,5.6944 4.55005,11.44313 4.92801,16.43903 0.44011,5.81731 -2.25808,7.32956 -18.539148,10.39064 -11.166042,2.09937 -34.9062,6.14801 -36.04157,6.14651 -0.389637,-5e-4 -1.04593,-0.20844 -1.45843,-0.46206 z"
		 id="path1038"
		 transform="scale(0.26458333)" />
	  <path
		 style="fill:#ffffff;fill-opacity:1;stroke-width:0.25;stroke-opacity:0"
		 d="m 171.28073,143.86803 c -11.49244,-1.7474 -36.1948,-6.06642 -40.57704,-7.0946 -6.43856,-1.51064 -9.13568,-2.91495 -10.06767,-5.24196 -0.79493,-1.98478 0.11238,-8.64096 1.91706,-14.06399 4.94273,-14.85278 18.43979,-29.822215 34.60265,-38.377394 8.0775,-4.275508 15.88712,-6.459759 23.125,-6.467769 3.7976,-0.0042 6.19635,0.356976 9.11731,1.372784 5.95207,2.069927 11.16735,7.27043 13.32411,13.286369 3.19695,8.917366 -0.30461,20.28021 -11.33833,36.79383 -7.17509,10.73858 -15.87092,20.27655 -18.28063,20.05098 -0.17735,-0.0166 -0.99746,-0.13281 -1.82246,-0.25825 z"
		 id="path1040"
		 transform="scale(0.26458333)" />
	  <path
		 style="fill:#ffffff;fill-opacity:1;stroke-width:0.25;stroke-opacity:0"
		 d="m 112.57201,113.34397 c -2.37862,-3.17257 -6.86362,-16.026825 -9.87856,-28.3125 -2.59254,-10.564377 -2.6367,-15.378365 -0.19629,-21.3961 2.04197,-5.035215 5.53491,-9.398244 8.81795,-11.014476 1.22996,-0.60551 1.78715,-0.747953 2.48362,-0.634931 3.11829,0.506029 7.13493,4.42149 9.61137,9.369269 3.58629,7.165204 3.66356,12.480354 0.36963,25.426238 -3.5922,14.11811 -8.6185,27.375 -10.37913,27.375 -0.12068,0 -0.49355,-0.36562 -0.82859,-0.8125 z"
		 id="path1042"
		 transform="scale(0.26458333)" />
	  <path
		 style="fill:#ffffff;fill-opacity:1;stroke-width:0.25;stroke-opacity:0"
		 d="m 54.905732,166.09344 c -1.366293,-0.48714 -1.818318,-1.60053 -1.633689,-4.02397 0.312594,-4.1031 1.068511,-6.07401 3.114212,-8.11971 7.54302,-7.54302 30.161357,-9.90376 73.394475,-7.66039 31.13782,1.61575 40.72806,3.75616 43.41061,9.68866 0.52212,1.15467 0.58939,1.67439 0.58939,4.55344 0,2.78865 -0.0697,3.36532 -0.49133,4.06238 -1.1314,1.87069 -3.54782,1.96612 -11.35487,0.44842 -7.76411,-1.50936 -13.45509,-2.09819 -28.4038,-2.93885 -7.27018,-0.40885 -32.7882,-0.40457 -40.124998,0.007 -14.99319,0.84052 -21.180672,1.4987 -29.75,3.16461 -5.313743,1.03301 -7.559522,1.24313 -8.75,0.81867 z"
		 id="path1044"
		 transform="scale(0.26458333)" />
	  <path
		 style="fill:#ffffff;fill-opacity:1;stroke-width:0.25;stroke-opacity:0"
		 d="m 169.26335,183.37207 c -2.0569,-0.23779 -4.99871,-0.94951 -11.23262,-2.71753 -5.90722,-1.67537 -10.70922,-2.68753 -17.125,-3.60957 -16.76685,-2.40965 -31.14483,-2.71844 -46.874998,-1.0067 -10.113982,1.1006 -17.930963,2.54372 -25.50268,4.70816 -7.121204,2.03565 -10.411239,2.72227 -12.537707,2.61656 -2.047055,-0.10176 -2.731051,-0.52526 -2.978469,-1.84411 -0.206333,-1.09985 0.02911,-1.73396 1.072705,-2.88909 4.185603,-4.63297 19.782775,-8.5582 41.821151,-10.52484 4.924968,-0.43949 26.229628,-0.4374 31.624998,0.003 16.14021,1.31775 28.80041,3.48529 37.27576,6.38196 6.30075,2.15345 9.09924,4.11941 9.09924,6.39229 0,2.10479 -1.41379,2.86303 -4.64238,2.48978 z"
		 id="path1046"
		 transform="scale(0.26458333)" />
	  <path
		 style="fill:#ffffff;fill-opacity:1;stroke-width:0.25;stroke-opacity:0"
		 d="m 98.905732,199.38581 c -16.966096,-0.85756 -30.00675,-2.83654 -34.927994,-5.30048 -2.118575,-1.06072 -2.398958,-1.46904 -1.569024,-2.28501 1.597164,-1.57028 9.036271,-4.40793 15.122018,-5.76829 10.000102,-2.23536 24.166148,-3.20658 41.374998,-2.83665 16.59237,0.35667 31.02194,2.10777 39.125,4.748 6.07522,1.9795 7.38797,3.9332 4.06807,6.05429 -4.29183,2.74205 -15.0643,4.58089 -31.66722,5.40553 -5.79731,0.28795 -25.7023,0.27696 -31.525848,-0.0174 z"
		 id="path1048"
		 transform="scale(0.26458333)" />
  </g>
</svg>
