<?xml version="1.0" encoding="UTF-8" standalone="no"?>
<svg
   xmlns:dc="http://purl.org/dc/elements/1.1/"
   xmlns:cc="http://creativecommons.org/ns#"
   xmlns:rdf="http://www.w3.org/1999/02/22-rdf-syntax-ns#"
   xmlns:svg="http://www.w3.org/2000/svg"
   xmlns="http://www.w3.org/2000/svg"
   xmlns:sodipodi="http://sodipodi.sourceforge.net/DTD/sodipodi-0.dtd"
   xmlns:inkscape="http://www.inkscape.org/namespaces/inkscape"
   width="225"
   height="225"
   viewBox="0 0 59.531249 59.531252"
   version="1.1"
   id="svg414"
   inkscape:version="1.0.2 (e86c870879, 2021-01-15, custom)"
   sodipodi:docname="KingWhite.svg">
  <defs
     id="defs408">
    <inkscape:path-effect
       effect="powermask"
       id="path-effect1337"
       is_visible="true"
       lpeversion="1"
       uri="#mask-powermask-path-effect1337"
       invert="false"
       hide_mask="false"
       background="true"
       background_color="#ffffffff" />
    <mask
       maskUnits="userSpaceOnUse"
       id="mask-powermask-path-effect1337">
      <rect
         style="fill:#000000;fill-opacity:1;stroke:#000000;stroke-width:0.358884;stroke-opacity:1"
         id="rect1335"
         width="44.732449"
         height="14.099051"
         x="7.3811173"
         y="42.077751" />
    </mask>
  </defs>
  <sodipodi:namedview
     id="base"
     pagecolor="#ffffff"
     bordercolor="#666666"
     borderopacity="1.0"
     inkscape:pageopacity="0.0"
     inkscape:pageshadow="2"
     inkscape:zoom="2.8284271"
     inkscape:cx="109.49952"
     inkscape:cy="106.76096"
     inkscape:document-units="mm"
     inkscape:current-layer="layer1"
     inkscape:document-rotation="0"
     showgrid="false"
     units="px"
     inkscape:window-width="1920"
     inkscape:window-height="1017"
     inkscape:window-x="-8"
     inkscape:window-y="-8"
     inkscape:window-maximized="1" />
  <metadata
     id="metadata411">
    <rdf:RDF>
      <cc:Work
         rdf:about="">
        <dc:format>image/svg+xml</dc:format>
        <dc:type
           rdf:resource="http://purl.org/dc/dcmitype/StillImage" />
        <dc:title />
      </cc:Work>
    </rdf:RDF>
  </metadata>
  <g
     inkscape:label="Vague Outline"
     inkscape:groupmode="layer"
     id="layer1">
    <path
       style="fill:#000000;stroke-width:1.00309"
       d="m 22.496543,54.749599 c -1.103406,-0.266296 -3.92461,-0.979569 -6.269346,-1.585028 l -4.263155,-1.100836 v -5.773906 c 0,-5.066055 -0.491892,-6.510516 -4.0123834,-11.78249 C 3.1149942,27.264377 2.6599978,22.780035 6.4048194,19.261958 c 2.0427052,-1.919024 3.2311942,-2.229953 6.9300476,-1.813039 2.455478,0.276758 5.816749,1.466093 7.469488,2.64295 1.652736,1.176854 3.183565,2.139734 3.401834,2.139734 0.21826,0 0.396853,-1.638032 0.396853,-3.640073 0,-2.540145 0.666836,-4.180043 2.206809,-5.427037 2.925337,-2.368797 2.898389,-5.7188045 -0.05016,-6.234616 -2.177259,-0.3808854 -2.186115,-0.4250456 -0.250794,-1.2504676 1.103408,-0.4706011 2.379102,-1.3399595 2.834879,-1.9319026 0.575747,-0.7477551 0.983982,-0.6935443 1.337461,0.1776188 0.279831,0.6896278 1.148249,1.2538685 1.929826,1.2538685 0.781575,0 1.421049,0.4513948 1.421049,1.003094 0,0.551703 -0.677086,1.0030978 -1.504643,1.0030978 -2.235564,0 -1.835067,3.9247871 0.601857,5.8980901 1.454865,1.178078 2.106501,2.856909 2.106501,5.427039 0,2.046715 0.160529,3.7213 0.356678,3.7213 0.196196,0 2.019602,-1.128481 4.052052,-2.507741 4.965762,-3.369858 10.650711,-3.388381 13.993495,-0.04561 3.640916,3.640914 3.217724,7.688992 -1.550236,14.829073 -3.452394,5.169998 -4.012384,6.769765 -4.012384,11.462492 0,5.314174 -0.09254,5.492573 -3.612682,6.963376 -3.627243,1.515565 -18.214802,2.721812 -21.966247,1.816395 z m 20.259914,-3.278301 c 4.482731,-2.508665 -15.191049,-4.276992 -23.11249,-2.07741 -2.120615,0.588847 -3.592626,1.333663 -3.271134,1.655155 2.196895,2.196895 22.628217,2.523887 26.383624,0.422255 z M 30.019758,46.305889 c 3.686549,0 8.805827,0.632912 11.376171,1.406473 3.827543,1.15192 4.673351,1.166963 4.673351,0.0831 0,-1.743155 -8.351462,-3.495782 -16.657802,-3.495782 -7.806591,0 -15.441248,1.746212 -15.441248,3.531747 0,1.030747 0.931634,1.00701 4.673355,-0.11909 2.570344,-0.773562 7.689622,-1.406473 11.376173,-1.406473 z m 0,-3.510834 c 4.689469,0 10.219033,0.358991 12.287917,0.797777 3.327366,0.70568 3.761605,0.57332 3.761605,-1.14655 0,-2.711475 -2.113483,-3.333652 -13.040237,-3.838845 -12.736282,-0.588853 -18.449759,0.47586 -18.885667,3.519372 -0.30944,2.16064 -0.106904,2.246059 3.510831,1.480584 2.111583,-0.446784 7.676079,-0.812338 12.365551,-0.812338 z m -8.52631,-5.912587 c 6.593564,-1.164563 7.000785,-1.389072 6.679167,-3.682366 -0.880358,-6.27733 -7.731205,-12.835799 -14.332993,-13.721285 -4.7038234,-0.630913 -7.8941514,1.664652 -7.8941514,5.680155 0,2.558218 6.3644254,13.199745 7.8006384,13.042913 0.399116,-0.0436 3.885423,-0.63732 7.747339,-1.319417 z M 50.55656,33.028264 c 3.882317,-5.764908 4.415777,-9.166642 1.877374,-11.971547 -5.219571,-5.767562 -19.241876,2.546722 -20.567035,12.194862 -0.321647,2.341768 0.05466,2.563445 6.177621,3.639145 3.586064,0.630011 7.072365,1.200588 7.747337,1.267941 0.674971,0.06737 2.819088,-2.241327 4.764703,-5.130401 z M 32.361064,24.569525 c 1.324487,-4.6559 1.392834,-6.156134 0.377036,-8.275535 -0.682402,-1.423783 -1.905653,-2.588698 -2.718339,-2.588698 -0.812687,0 -2.035938,1.164915 -2.71834,2.588698 -1.015805,2.119401 -0.947453,3.619635 0.377038,8.275535 0.889771,3.12776 1.94336,5.686838 2.341306,5.686838 0.397946,0 1.451535,-2.559078 2.341305,-5.686838 z"
       id="path996" />
  </g>
</svg>
