<svg
   xmlns:dc="http://purl.org/dc/elements/1.1/"
   xmlns:cc="http://creativecommons.org/ns#"
   xmlns:rdf="http://www.w3.org/1999/02/22-rdf-syntax-ns#"
   xmlns:svg="http://www.w3.org/2000/svg"
   xmlns="http://www.w3.org/2000/svg"
   xmlns:sodipodi="http://sodipodi.sourceforge.net/DTD/sodipodi-0.dtd"
   xmlns:inkscape="http://www.inkscape.org/namespaces/inkscape"
   width="225"
   height="225"
   viewBox="0 0 59.531249 59.531252"
   version="1.1"
   id="svg414"
   inkscape:version="1.0.2 (e86c870879, 2021-01-15, custom)"
   sodipodi:docname="KnightWhite.svg">
  <defs
     id="defs408">
    <inkscape:path-effect
       effect="powermask"
       id="path-effect1337"
       is_visible="true"
       lpeversion="1"
       uri="#mask-powermask-path-effect1337"
       invert="false"
       hide_mask="false"
       background="true"
       background_color="#ffffffff" />
    <mask
       maskUnits="userSpaceOnUse"
       id="mask-powermask-path-effect1337">
      <rect
         style="fill:#000000;fill-opacity:1;stroke:#000000;stroke-width:0.358884;stroke-opacity:1"
         id="rect1335"
         width="44.732449"
         height="14.099051"
         x="7.3811173"
         y="42.077751" />
    </mask>
  </defs>
  <sodipodi:namedview
     id="base"
     pagecolor="#ffffff"
     bordercolor="#666666"
     borderopacity="1.0"
     inkscape:pageopacity="0.0"
     inkscape:pageshadow="2"
     inkscape:zoom="1.4"
     inkscape:cx="78.893711"
     inkscape:cy="94.0627"
     inkscape:document-units="mm"
     inkscape:current-layer="layer1"
     inkscape:document-rotation="0"
     showgrid="false"
     units="px"
     inkscape:window-width="1920"
     inkscape:window-height="1017"
     inkscape:window-x="-8"
     inkscape:window-y="-8"
     inkscape:window-maximized="1" />
  <metadata
     id="metadata411">
    <rdf:RDF>
      <cc:Work
         rdf:about="">
        <dc:format>image/svg+xml</dc:format>
        <dc:type
           rdf:resource="http://purl.org/dc/dcmitype/StillImage" />
        <dc:title />
      </cc:Work>
    </rdf:RDF>
  </metadata>
  <g
     inkscape:label="Vague Outline"
     inkscape:groupmode="layer"
     id="layer1">
    <path
       style="fill:#000000;stroke-width:0.792493"
       d="m 17.169067,57.547713 c -0.842007,-0.842004 -0.612139,-4.966726 0.380115,-6.820768 0.499647,-0.933596 2.591914,-3.852285 4.649485,-6.485974 4.316997,-5.525749 6.329474,-9.177558 6.329474,-11.485365 0,-1.669532 -1.139892,-2.193171 -1.943554,-0.892822 -0.248666,0.402337 -1.460969,0.953108 -2.694024,1.223932 -2.290233,0.503019 -6.036458,4.0315 -9.913808,9.337581 C 11.777417,45.434051 9.3176984,46.252285 8.16081,44.358993 7.8122501,43.788557 6.3986314,42.866408 5.0194419,42.309775 1.8182189,41.017772 0.29634573,37.652524 1.4354952,34.384753 1.8846811,33.096222 3.6840363,29.667942 5.4340677,26.766356 7.1840979,23.864767 8.4275877,20.999899 8.1973786,20.399982 7.538463,18.68288 9.3630524,14.10914 11.512529,12.089815 c 1.60723,-1.509917 1.958235,-2.5961818 1.958235,-6.0602377 0,-4.7359568 0.62062,-5.11122646 4.358713,-2.635586 3.123062,2.0683209 4.492087,1.9924968 6.713248,-0.3718243 2.133735,-2.27125686 2.950787,-1.9862348 4.425777,1.5439093 0.999392,2.3918826 1.383983,2.5919499 5.742213,2.9871405 9.674928,0.8772915 16.155591,8.0371222 20.074225,22.1779902 1.641837,5.924769 4.178441,25.574087 3.522214,27.284181 -0.32514,0.847302 -4.450425,1.060654 -20.508385,1.060654 -11.055757,0 -20.339121,-0.237733 -20.629702,-0.528329 z M 56.39601,51.339848 C 56.278622,49.160492 55.646251,44.167782 54.99075,40.244938 51.432493,18.950679 45.029703,9.7339392 33.795023,9.7339392 c -4.362622,0 -4.540424,-0.0847 -5.822733,-2.7737246 -1.503139,-3.1521208 -2.094969,-3.372945 -3.559804,-1.3282423 -0.569554,0.7950175 -3.308072,2.7708121 -6.085596,4.3906557 -6.385256,3.72386 -7.966314,5.613722 -7.999734,9.562229 -0.01947,2.287264 -0.9042096,4.462089 -3.3307529,8.186486 -2.4237484,3.720117 -3.3213617,5.924727 -3.3680967,8.272315 -0.080307,4.033375 1.627494,5.444707 4.6384636,3.833283 2.33838,-1.251463 3.511839,-0.620172 2.072027,1.114695 -1.1423106,1.376399 -0.8304946,3.034623 0.413642,2.199757 0.466345,-0.312935 2.351584,-2.621881 4.189419,-5.130991 2.692215,-3.675558 4.307679,-5.000098 8.313723,-6.816524 5.358912,-2.429846 8.442531,-5.549312 8.442531,-8.54067 0,-1.137771 0.467156,-1.874359 1.188742,-1.874359 1.620792,0 1.492779,1.461284 -0.453946,5.181762 -0.903479,1.726683 -1.749029,3.852663 -1.879005,4.724405 -0.865004,5.801549 -1.845653,7.948928 -6.403325,14.021674 -2.768617,3.688973 -5.274602,7.666451 -5.568852,8.838839 l -0.535003,2.13162 19.281363,-0.212425 19.281356,-0.212422 z M 4.7533341,38.457779 c 0,-0.871744 0.5349341,-2.028944 1.188741,-2.571555 0.9892651,-0.821019 1.1887399,-0.720603 1.1887399,0.598422 0,0.871743 -0.5349341,2.028941 -1.1887399,2.571551 -0.9892686,0.82102 -1.188741,0.720604 -1.188741,-0.598418 z M 12.678269,19.588008 c 0,-1.175276 1.742595,-3.510253 2.342843,-3.13928 1.029231,0.636098 0.0036,3.587628 -1.246531,3.587628 -0.602971,0 -1.096312,-0.20176 -1.096312,-0.448348 z m 5.491771,-11.7693763 1.925548,-1.0666471 -2.519919,-1.3031 -2.51992,-1.3031012 v 2.3978307 c 0,2.6726561 0.33997,2.8118401 3.114291,1.2750176 z"
       id="path860" />
  </g>
</svg>
