<svg
   xmlns:dc="http://purl.org/dc/elements/1.1/"
   xmlns:cc="http://creativecommons.org/ns#"
   xmlns:rdf="http://www.w3.org/1999/02/22-rdf-syntax-ns#"
   xmlns:svg="http://www.w3.org/2000/svg"
   xmlns="http://www.w3.org/2000/svg"
   xmlns:sodipodi="http://sodipodi.sourceforge.net/DTD/sodipodi-0.dtd"
   xmlns:inkscape="http://www.inkscape.org/namespaces/inkscape"
   width="225"
   height="225"
   viewBox="0 0 59.531249 59.531252"
   version="1.1"
   id="svg414"
   inkscape:version="1.0.2 (e86c870879, 2021-01-15, custom)"
   sodipodi:docname="KnightBlack.svg">
  <defs
     id="defs408">
    <inkscape:path-effect
       effect="powermask"
       id="path-effect1337"
       is_visible="true"
       lpeversion="1"
       uri="#mask-powermask-path-effect1337"
       invert="false"
       hide_mask="false"
       background="true"
       background_color="#ffffffff" />
    <mask
       maskUnits="userSpaceOnUse"
       id="mask-powermask-path-effect1337">
      <rect
         style="fill:#000000;fill-opacity:1;stroke:#000000;stroke-width:0.358884;stroke-opacity:1"
         id="rect1335"
         width="44.732449"
         height="14.099051"
         x="7.3811173"
         y="42.077751" />
    </mask>
  </defs>
  <sodipodi:namedview
     id="base"
     pagecolor="#ffffff"
     bordercolor="#666666"
     borderopacity="1.0"
     inkscape:pageopacity="0.0"
     inkscape:pageshadow="2"
     inkscape:zoom="1.8377778"
     inkscape:cx="93.516799"
     inkscape:cy="122.50094"
     inkscape:document-units="mm"
     inkscape:current-layer="layer1"
     inkscape:document-rotation="0"
     showgrid="false"
     units="px"
     inkscape:window-width="1920"
     inkscape:window-height="1017"
     inkscape:window-x="-8"
     inkscape:window-y="-8"
     inkscape:window-maximized="1" />
  <metadata
     id="metadata411">
    <rdf:RDF>
      <cc:Work
         rdf:about="">
        <dc:format>image/svg+xml</dc:format>
        <dc:type
           rdf:resource="http://purl.org/dc/dcmitype/StillImage" />
        <dc:title />
      </cc:Work>
    </rdf:RDF>
  </metadata>
  <g
     inkscape:label="Vague Outline"
     inkscape:groupmode="layer"
     id="layer1">
    <path
       style="fill:#808080;fill-opacity:0.46;stroke-width:0.791746"
       d="m 16.918705,58.354999 c -0.841214,-0.841211 -0.611564,-4.962046 0.379756,-6.81434 0.499176,-0.932716 2.589472,-3.848656 4.645106,-6.479862 4.312928,-5.520544 6.323507,-9.168909 6.323507,-11.474542 0,-1.667959 -1.138817,-2.191106 -1.941722,-0.891981 -0.248431,0.401958 -1.459592,0.952209 -2.691485,1.222778 -2.288075,0.502546 -6.03077,4.027702 -9.904466,9.328782 -2.197265,3.006918 -4.6546665,3.824381 -5.8104647,1.932873 C 7.5707033,44.608808 6.1584179,43.687529 4.7805271,43.13142 1.5823212,41.840635 0.06187947,38.478558 1.1999575,35.213866 1.6487202,33.92655 3.4463793,30.501499 5.1947636,27.602647 6.9431437,24.703791 8.1854625,21.841624 7.9554708,21.242273 7.2971751,19.526788 9.1200457,14.957358 11.267497,12.939935 c 1.605716,-1.508495 1.956389,-2.593736 1.956389,-6.0545272 0,-4.7314936 0.620034,-5.106409 4.354606,-2.6331001 3.12012,2.0663699 4.487853,1.9906173 6.706923,-0.3714751 2.131724,-2.2691166 2.948005,-1.9843631 4.421606,1.5424533 0.99845,2.3896287 1.382679,2.5895075 5.736803,2.984326 9.665811,0.8764642 16.140367,8.0295511 20.055308,22.1570941 1.640291,5.919185 4.174505,25.549988 3.518896,27.25847 -0.324834,0.846504 -4.446232,1.059655 -20.489061,1.059655 -11.045338,0 -20.319955,-0.237508 -20.610262,-0.527832 z m 39.18998,-6.202015 C 55.991411,49.975681 55.359631,44.987677 54.704747,41.068528 51.149844,19.794335 44.753087,10.586279 33.528994,10.586279 c -4.358512,0 -4.536146,-0.08463 -5.817246,-2.7711115 -1.501724,-3.1491479 -2.092994,-3.3697652 -3.55645,-1.3269893 -0.569018,0.7942681 -3.304956,2.7681998 -6.079862,4.3865178 -6.379238,3.720351 -7.958807,5.608433 -7.992196,9.553221 -0.01945,2.285107 -0.903358,4.457883 -3.3276139,8.178771 -2.4214645,3.716611 -3.3182329,5.919143 -3.3649242,8.26452 -0.080221,4.029574 1.625961,5.439577 4.6340939,3.82967 2.3361772,-1.250284 3.5085292,-0.619587 2.0700762,1.113645 -1.1412354,1.375102 -0.8297145,3.031764 0.41325,2.197685 0.465907,-0.312641 2.349368,-2.619411 4.185472,-5.126156 2.689679,-3.672096 4.303621,-4.995388 8.30589,-6.810101 5.353862,-2.427557 8.434576,-5.544084 8.434576,-8.532623 0,-1.136698 0.466714,-1.872593 1.18762,-1.872593 1.619266,0 1.491373,1.459908 -0.453517,5.17688 -0.902627,1.725055 -1.74738,3.849034 -1.877235,4.719952 -0.864189,5.796083 -1.843913,7.94144 -6.397292,14.008463 -2.766006,3.685496 -5.269631,7.659227 -5.563604,8.83051 l -0.534498,2.129611 19.263194,-0.212225 19.263189,-0.212222 z M 4.5146716,39.283054 c 0,-0.870921 0.5344288,-2.027033 1.18762,-2.569131 0.9883327,-0.820246 1.1876199,-0.719924 1.1876199,0.597857 0,0.870922 -0.53443,2.027029 -1.1876199,2.569129 -0.9883363,0.820245 -1.18762,0.719924 -1.18762,-0.597855 z m 7.9174654,-18.85199 c 0,-1.174169 1.740954,-3.506947 2.340636,-3.136321 1.028262,0.635498 0.0037,3.584247 -1.245356,3.584247 -0.602402,0 -1.09528,-0.201571 -1.09528,-0.447926 z M 17.918734,8.6727772 19.842469,7.6071339 17.324924,6.3052624 14.807379,5.0033885 v 2.3955708 c 0,2.6701387 0.339648,2.8091897 3.111355,1.2738179 z"
       id="path860" />
    <path
       style="fill:#000000;fill-opacity:1;stroke-width:0.16265;stroke-opacity:0"
       d="m 18.20004,55.319505 c 0.156285,-0.603841 0.524607,-1.573644 0.818492,-2.155117 0.735686,-1.455609 2.875337,-4.699003 5.063097,-7.674913 4.216362,-5.735312 5.193104,-7.756031 6.060766,-12.538706 0.412686,-2.274782 0.946057,-3.769252 2.323844,-6.51125 1.704366,-3.391934 1.777657,-4.829285 0.246241,-4.829285 -0.91328,0 -1.22062,0.495927 -1.393774,2.248994 -0.281094,2.845912 -2.78237,5.312277 -8.113116,7.999879 -1.590434,0.801847 -3.31046,1.72522 -3.822281,2.051936 -1.359493,0.867816 -3.157369,2.754568 -5.140199,5.394295 -2.068739,2.754094 -3.556038,4.510771 -4.036996,4.768174 C 9.9182224,44.227587 9.8193645,44.207013 9.6345705,43.954575 9.3413532,43.55403 9.4741865,43.05047 10.17663,41.899682 11.34306,39.988759 10.531856,39.472009 8.0937421,40.572847 6.3545822,41.3581 5.621337,41.441003 4.8714267,40.93717 4.1497588,40.452313 3.7508003,39.63893 3.5543938,38.252052 c -0.3815982,-2.69457 0.3832776,-4.933044 3.2688361,-9.56653 2.5743486,-4.133762 3.0177823,-5.243233 3.3365281,-8.347991 0.183051,-1.783026 0.310222,-2.354738 0.717274,-3.224588 0.846405,-1.808725 2.635552,-3.368997 6.599791,-5.755517 3.398454,-2.0459103 5.325333,-3.4335262 6.700828,-4.8255141 0.733355,-0.7421458 1.413713,-1.3493561 1.511907,-1.3493561 0.365122,0 0.977212,0.8204245 1.715679,2.2996345 0.952996,1.9089415 1.435408,2.5534267 2.127865,2.8427537 0.351984,0.147069 1.690558,0.282206 3.760174,0.379612 3.756596,0.176802 5.070096,0.45663 7.280318,1.55099 3.507766,1.736823 6.133347,4.663242 8.465982,9.436012 0.655824,1.341866 1.451312,3.146146 1.767752,4.009515 2.050411,5.594231 3.881502,14.238087 4.887466,23.071758 0.229015,2.011023 0.605151,7.192362 0.526267,7.24942 -0.04031,0.02914 -34.498,0.402732 -36.735553,0.398271 l -1.569622,-0.0032 z M 5.5369545,40.141736 C 6.4961239,39.458748 7.199728,37.610891 6.9219836,36.504267 6.7831731,35.951204 6.4711218,35.976773 5.7620803,36.599327 4.7929902,37.450202 4.2514057,38.828105 4.4564552,39.921111 4.5784798,40.571559 4.8542518,40.62787 5.5369545,40.141744 Z M 14.292982,20.610752 c 1.141102,-1.063097 1.324601,-3.392076 0.267263,-3.392076 -0.655825,0 -2.206906,2.162517 -2.206906,3.076866 0,0.691803 1.30737,0.904263 1.939643,0.31521 z"
       id="path864" />
    <path
       style="fill:#000000;fill-opacity:1;stroke-width:0.16265;stroke-opacity:0"
       d="m 15.124116,9.2595054 c -0.0926,-0.173034 -0.168372,-1.16326 -0.168372,-2.2005017 V 5.1731094 l 2.273657,1.1839377 c 1.25051,0.6511659 2.275206,1.2232757 2.277103,1.2713556 0.0062,0.1582931 -3.574459,1.9457108 -3.897808,1.9457108 -0.173913,0 -0.391974,-0.1415736 -0.48458,-0.3146081 z"
       id="path866" />
  </g>
</svg>
