<svg
   xmlns:dc="http://purl.org/dc/elements/1.1/"
   xmlns:cc="http://creativecommons.org/ns#"
   xmlns:rdf="http://www.w3.org/1999/02/22-rdf-syntax-ns#"
   xmlns:svg="http://www.w3.org/2000/svg"
   xmlns="http://www.w3.org/2000/svg"
   xmlns:sodipodi="http://sodipodi.sourceforge.net/DTD/sodipodi-0.dtd"
   xmlns:inkscape="http://www.inkscape.org/namespaces/inkscape"
   width="225"
   height="225"
   viewBox="0 0 59.531249 59.531252"
   version="1.1"
   id="svg414"
   inkscape:version="1.0.2 (e86c870879, 2021-01-15, custom)"
   sodipodi:docname="QueenBlack.svg">
  <defs
     id="defs408">
    <inkscape:path-effect
       effect="powermask"
       id="path-effect1337"
       is_visible="true"
       lpeversion="1"
       uri="#mask-powermask-path-effect1337"
       invert="false"
       hide_mask="false"
       background="true"
       background_color="#ffffffff" />
    <mask
       maskUnits="userSpaceOnUse"
       id="mask-powermask-path-effect1337">
      <rect
         style="fill:#000000;fill-opacity:1;stroke:#000000;stroke-width:0.358884;stroke-opacity:1"
         id="rect1335"
         width="44.732449"
         height="14.099051"
         x="7.3811173"
         y="42.077751" />
    </mask>
  </defs>
  <sodipodi:namedview
     id="base"
     pagecolor="#ffffff"
     bordercolor="#666666"
     borderopacity="1.0"
     inkscape:pageopacity="0.0"
     inkscape:pageshadow="2"
     inkscape:zoom="2.8284271"
     inkscape:cx="31.523666"
     inkscape:cy="127.44872"
     inkscape:document-units="mm"
     inkscape:current-layer="layer1"
     inkscape:document-rotation="0"
     showgrid="false"
     units="px"
     inkscape:window-width="1920"
     inkscape:window-height="1017"
     inkscape:window-x="-8"
     inkscape:window-y="-8"
     inkscape:window-maximized="1" />
  <metadata
     id="metadata411">
    <rdf:RDF>
      <cc:Work
         rdf:about="">
        <dc:format>image/svg+xml</dc:format>
        <dc:type
           rdf:resource="http://purl.org/dc/dcmitype/StillImage" />
        <dc:title />
      </cc:Work>
    </rdf:RDF>
  </metadata>
  <g
     inkscape:label="Vague Outline"
     inkscape:groupmode="layer"
     id="layer1">
    <path
       style="fill:#000000;stroke-width:0.398686"
       d="m 17.352678,55.638538 c -4.289542,-1.080259 -6.315425,-2.5052 -5.909257,-4.156383 0.13994,-0.568905 0.473832,-1.393193 0.741973,-1.831748 C 13.85037,46.927288 12.560903,43.292442 8.1330378,38.227309 6.7104174,36.59994 6.4631726,35.591259 5.4115949,27.124635 4.1057897,16.611149 4.0354682,16.262827 3.084776,15.599314 0.15552865,13.554919 -0.26548097,11.777851 1.633601,9.4739352 2.6631049,8.2249667 3.1050958,7.9876958 4.4021711,7.9876958 c 1.0522483,0 1.8957202,0.3029784 2.6502188,0.9519708 1.1620642,0.9995659 1.1361555,0.8157715 0.8774106,6.2243814 -0.047858,1.000486 0.6832956,2.93463 2.5834765,6.834114 2.372793,4.869363 3.767418,6.808521 3.892962,5.412975 0.188722,-2.097828 0.275925,-3.681502 0.5217,-9.474499 L 15.207806,11.3401 13.994165,9.9629126 C 11.4189,7.0406118 12.87791,3.4028034 16.625218,3.4028034 c 1.521289,0 1.947826,0.1850632 2.756703,1.1960586 1.09707,1.3711993 1.258105,3.5604017 0.350196,4.7607654 -0.803755,1.0626576 -0.736105,1.9657606 0.390005,5.2063916 3.385832,9.743489 4.078532,11.576339 4.422117,11.700689 0.469484,0.169916 1.208912,-2.292223 1.756986,-5.850403 0.427751,-2.777035 0.907677,-5.455513 1.676387,-9.355978 C 28.41495,8.8412635 28.393448,8.7083763 27.429316,7.6714948 26.051277,6.1894776 25.759683,4.667868 26.538995,3.0255872 27.748487,0.47677301 31.467012,0.11166736 33.084298,2.3829357 34.18121,3.923408 34.108427,5.4997251 32.85523,7.3439699 c -0.827766,1.2181686 -0.994839,1.8335778 -0.809842,2.9830241 0.128187,0.796521 0.525051,3.152604 0.881902,5.23574 0.356851,2.083136 0.871506,5.187198 1.143675,6.897916 0.272169,1.710718 0.764647,3.380189 1.094393,3.709936 0.5336,0.533598 0.696937,0.301113 1.485033,-2.113679 0.487018,-1.492273 1.706281,-5.030767 2.709468,-7.863321 L 41.183832,11.043487 40.451405,9.6834485 C 39.294198,7.5346491 39.48265,5.7057033 41.001062,4.3490044 c 1.959072,-1.7504331 4.472518,-1.3840858 5.788505,0.8437024 0.997134,1.6880181 0.83439,3.1770241 -0.499503,4.5700967 -0.639883,0.6682705 -1.211451,1.4841525 -1.270153,1.8130685 -0.165312,0.926273 0.50375,16.346136 0.709254,16.346136 0.551902,0 1.724321,-0.895663 1.724321,-1.317285 0,-0.270521 0.727017,-1.923741 1.615598,-3.67382 0.888574,-1.750079 2.051443,-4.200337 2.584143,-5.445017 0.904373,-2.113101 0.930952,-2.369619 0.401118,-3.871329 -1.059441,-3.002774 0.553864,-5.5879575 3.503205,-5.6135979 1.165343,-0.010096 1.801021,0.2620148 2.691131,1.1521265 1.914883,1.9148814 1.475669,4.6626674 -1.004793,6.2861714 -1.21315,0.794026 -1.358113,1.101424 -1.598066,3.388833 -0.145139,1.383578 -0.52605,4.578797 -0.846466,7.100486 -1.356435,10.675155 -1.296871,10.481334 -4.349622,14.153362 -0.911481,1.096386 -2.137765,3.126186 -2.725073,4.510668 l -1.067829,2.517241 1.024352,2.165296 c 0.563391,1.190916 0.966902,2.567186 0.896686,3.058378 -0.171324,1.198467 -2.836026,2.62678 -6.222467,3.335318 -3.509746,0.734332 -22.05573,0.711858 -25.002725,-0.0303 z"
       id="path1091" />
  </g>
</svg>
