<svg
   xmlns:dc="http://purl.org/dc/elements/1.1/"
   xmlns:cc="http://creativecommons.org/ns#"
   xmlns:rdf="http://www.w3.org/1999/02/22-rdf-syntax-ns#"
   xmlns:svg="http://www.w3.org/2000/svg"
   xmlns="http://www.w3.org/2000/svg"
   xmlns:sodipodi="http://sodipodi.sourceforge.net/DTD/sodipodi-0.dtd"
   xmlns:inkscape="http://www.inkscape.org/namespaces/inkscape"
   width="225"
   height="225"
   viewBox="0 0 59.531249 59.531252"
   version="1.1"
   id="svg414"
   inkscape:version="1.0.2 (e86c870879, 2021-01-15, custom)"
   sodipodi:docname="QueenWhite.svg">
  <defs
     id="defs408">
    <inkscape:path-effect
       effect="powermask"
       id="path-effect1337"
       is_visible="true"
       lpeversion="1"
       uri="#mask-powermask-path-effect1337"
       invert="false"
       hide_mask="false"
       background="true"
       background_color="#ffffffff" />
    <mask
       maskUnits="userSpaceOnUse"
       id="mask-powermask-path-effect1337">
      <rect
         style="fill:#000000;fill-opacity:1;stroke:#000000;stroke-width:0.358884;stroke-opacity:1"
         id="rect1335"
         width="44.732449"
         height="14.099051"
         x="7.3811173"
         y="42.077751" />
    </mask>
  </defs>
  <sodipodi:namedview
     id="base"
     pagecolor="#ffffff"
     bordercolor="#666666"
     borderopacity="1.0"
     inkscape:pageopacity="0.0"
     inkscape:pageshadow="2"
     inkscape:zoom="2.8284271"
     inkscape:cx="116.37648"
     inkscape:cy="127.44872"
     inkscape:document-units="mm"
     inkscape:current-layer="layer1"
     inkscape:document-rotation="0"
     showgrid="false"
     units="px"
     inkscape:window-width="1920"
     inkscape:window-height="1017"
     inkscape:window-x="-8"
     inkscape:window-y="-8"
     inkscape:window-maximized="1" />
  <metadata
     id="metadata411">
    <rdf:RDF>
      <cc:Work
         rdf:about="">
        <dc:format>image/svg+xml</dc:format>
        <dc:type
           rdf:resource="http://purl.org/dc/dcmitype/StillImage" />
        <dc:title />
      </cc:Work>
    </rdf:RDF>
  </metadata>
  <g
     inkscape:label="Vague Outline"
     inkscape:groupmode="layer"
     id="layer1">
    <path
       style="fill:#000000;stroke-width:1.1886"
       d="M 15.514519,55.576007 C 11.46318,54.164875 10.812568,52.728439 12.441971,48.792401 12.883211,47.726561 11.736464,44.749797 9.6946561,41.660768 7.0324966,37.633226 5.8608825,33.945835 4.8209758,26.321958 3.9542588,19.967788 2.7827705,15.795991 1.6280568,14.951646 -1.0133881,13.020171 0.15052146,9.0960351 3.5061855,8.6195292 c 3.3182021,-0.471186 5.0364336,1.7280828 4.1401348,5.2992128 -0.3834684,1.527959 0.702184,5.085105 2.7238207,8.924419 l 3.36147,6.383807 0.348831,-8.598928 C 14.272311,15.898628 13.873074,10.989805 13.193253,9.7195444 11.320992,6.2211922 12.906325,3.4813517 16.557796,3.9048013 c 2.761704,0.3202612 3.079405,0.8240589 2.788403,4.421654 -0.180633,2.2331107 0.86052,7.5818357 2.313676,11.8860557 l 2.642102,7.825853 1.557751,-6.53733 C 26.716486,17.905499 27.27995,12.021905 27.111862,8.42637 26.820398,2.1915257 26.941504,1.8890405 29.729566,1.8890405 c 2.840226,0 2.930645,0.2702604 3.181408,9.5088465 0.141959,5.229861 0.740495,11.113463 1.330101,13.07466 1.044212,3.473353 1.142053,3.35595 3.773347,-4.527476 1.485734,-4.451308 2.416364,-9.183032 2.06806,-10.5149401 -0.943622,-3.608413 0.3124,-5.7581803 3.36425,-5.7581803 3.24977,0 4.625225,2.8530384 2.915551,6.0475938 -0.679822,1.2702606 -1.076016,6.1790836 -0.880435,10.9084956 l 0.355615,8.598928 3.344887,-6.825402 c 1.839687,-3.753976 3.052322,-7.765521 2.694737,-8.914543 -0.960203,-3.085447 0.958502,-5.3238562 4.172286,-4.8674938 3.355665,0.4765059 4.519575,4.4006418 1.87813,6.3321168 -1.154714,0.844345 -2.326201,5.016142 -3.192918,11.370312 -1.039908,7.623877 -2.211522,11.311268 -4.873681,15.33881 -2.041809,3.089029 -3.188548,6.065793 -2.747316,7.131633 1.629402,3.936038 0.978791,5.372474 -3.072547,6.783606 -5.37009,1.870465 -23.156444,1.870465 -28.526536,0 z M 42.655776,53.74009 c 2.424533,-1.536894 -2.50947,-2.491453 -12.87799,-2.491453 -9.829266,0 -14.581924,0.867546 -13.585445,2.479879 0.829746,1.342559 24.347501,1.352842 26.463435,0.01178 z m -12.87799,-4.901129 c 4.257899,0 9.511956,0.507727 11.675692,1.128275 5.407535,1.550861 4.468636,-1.211923 -1.067517,-3.141246 -8.055706,-2.807371 -24.500421,-0.991227 -25.752562,2.844095 -0.34726,1.063689 0.533006,1.139098 3.468697,0.29717 2.163736,-0.620549 7.417793,-1.128275 11.67569,-1.128275 z m 1.782909,-5.064466 c 3.922399,0.156338 8.68404,0.423764 10.581422,0.594304 1.897383,0.170538 3.662503,-0.305166 3.922494,-1.057131 0.298562,-0.863577 -2.61397,-1.918793 -7.907062,-2.864719 -6.720301,-1.200986 -10.027437,-1.203093 -16.700001,-0.01084 -4.576133,0.8178 -8.320238,1.884064 -8.320238,2.369468 0,2.033008 1.986311,2.533224 6.499023,1.636656 2.636001,-0.523709 8.001963,-0.824283 11.924362,-0.66794 z m -7.801558,-5.498807 c 7.091247,-0.832118 13.974839,-0.313118 21.606576,1.629044 2.336576,0.594628 3.30465,0.277226 3.901933,-1.27925 1.194733,-3.113423 -0.221294,-3.812053 -10.239256,-5.051831 -7.900935,-0.977786 -27.709155,0.119127 -29.2682764,1.620775 -0.2231355,0.214916 -0.037742,1.549678 0.4117254,2.966175 0.626677,1.974487 1.414722,2.393135 3.377192,1.794127 1.407876,-0.42974 6.00242,-1.185292 10.210091,-1.67904 z M 11.948701,32.349576 c 0,-1.464956 -4.8754676,-12.318926 -5.3178357,-11.838782 -0.200629,0.217746 -0.087871,3.204016 0.2505395,6.636117 0.5016537,5.087423 1.0265331,6.240178 2.8413059,6.240178 1.2242953,0 2.2259863,-0.466878 2.2259863,-1.037513 z m 40.725462,-5.202665 c 0.338411,-3.432101 0.451172,-6.418352 0.250541,-6.636117 -0.442364,-0.480144 -5.317837,10.373826 -5.317837,11.838782 0,0.570635 1.00169,1.037513 2.225986,1.037513 1.814774,0 2.339652,-1.152755 2.84131,-6.240178 z m -30.202989,3.177381 c 0.230639,-0.193127 -0.760373,-3.896174 -2.202234,-8.228955 -1.441857,-4.332784 -2.759752,-7.709903 -2.92866,-7.504716 -0.168911,0.205212 -0.653591,4.2623 -1.077081,9.015792 l -0.769983,8.64271 3.279316,-0.786831 c 1.803628,-0.432748 3.468015,-0.944857 3.698642,-1.138 z m 20.742023,-6.743198 c -0.379246,-4.739565 -0.823794,-8.781042 -0.987867,-8.98106 -0.333875,-0.406964 -5.31591,13.997162 -5.31591,15.369364 0,0.481327 1.203462,1.106938 2.67436,1.390249 1.470901,0.283288 3.044397,0.587943 3.496663,0.676969 0.452263,0.08903 0.512005,-3.715957 0.132751,-8.455522 z m -10.376058,5.150622 c -0.297485,-1.035079 -0.900998,-4.951421 -1.341102,-8.702985 -0.440118,-3.751562 -1.211679,-6.566712 -1.714608,-6.255887 -0.50293,0.310828 -1.293325,3.597858 -1.756444,7.304519 -0.463113,3.706658 -1.083518,7.368688 -1.378671,8.137843 -0.339353,0.884311 0.799502,1.39847 3.097547,1.39847 2.750749,0 3.502699,-0.45749 3.093278,-1.88196 z M 5.4113718,10.803584 C 4.8362947,9.8730924 4.1525563,9.8040507 3.360152,10.596439 c -0.6537337,0.653736 -0.8004277,1.816688 -0.3260111,2.584349 0.575077,0.930488 1.2588154,0.999533 2.0512197,0.207142 0.6537339,-0.653733 0.8004321,-1.816686 0.3260112,-2.584346 z m 51.1100412,0 C 55.946336,9.8730924 55.2626,9.8040507 54.470194,10.596439 c -0.653733,0.653736 -0.800431,1.816688 -0.326012,2.584349 0.575078,0.930488 1.258816,0.999533 2.05122,0.207142 0.653731,-0.653733 0.800428,-1.816686 0.326011,-2.584346 z M 17.297427,6.0491616 C 16.72235,5.1186662 16.038611,5.0496246 15.246211,5.8420194 14.592478,6.4957527 14.445779,7.6587054 14.9202,8.426362 c 0.575075,0.9304887 1.258816,0.9995384 2.051217,0.2071423 0.653733,-0.6537334 0.800431,-1.816686 0.32601,-2.5843427 z m 27.337927,0 c -0.575072,-0.9304954 -1.258815,-0.999537 -2.051215,-0.2071422 -0.653733,0.6537333 -0.800432,1.816686 -0.326011,2.5843426 0.575077,0.9304887 1.258816,0.9995384 2.051215,0.2071423 0.653735,-0.6537334 0.800433,-1.816686 0.326011,-2.5843427 z M 32.154999,4.9307012 c 0,-1.6050562 -2.166755,-2.7177243 -3.585206,-1.8410708 -0.664399,0.4106014 -0.900265,1.2444932 -0.524157,1.8530531 0.892256,1.4437017 4.109363,1.4343171 4.109363,-0.012179 z"
       id="path1075" />
  </g>
</svg>
