<svg
   xmlns:dc="http://purl.org/dc/elements/1.1/"
   xmlns:cc="http://creativecommons.org/ns#"
   xmlns:rdf="http://www.w3.org/1999/02/22-rdf-syntax-ns#"
   xmlns:svg="http://www.w3.org/2000/svg"
   xmlns="http://www.w3.org/2000/svg"
   xmlns:sodipodi="http://sodipodi.sourceforge.net/DTD/sodipodi-0.dtd"
   xmlns:inkscape="http://www.inkscape.org/namespaces/inkscape"
   width="225"
   height="225"
   viewBox="0 0 59.531249 59.531252"
   version="1.1"
   id="svg414"
   inkscape:version="1.0.2 (e86c870879, 2021-01-15, custom)"
   sodipodi:docname="RookWhite.svg">
  <defs
     id="defs408">
    <inkscape:path-effect
       effect="powermask"
       id="path-effect1337"
       is_visible="true"
       lpeversion="1"
       uri="#mask-powermask-path-effect1337"
       invert="false"
       hide_mask="false"
       background="true"
       background_color="#ffffffff" />
    <mask
       maskUnits="userSpaceOnUse"
       id="mask-powermask-path-effect1337">
      <rect
         style="fill:#000000;fill-opacity:1;stroke:#000000;stroke-width:0.358884;stroke-opacity:1"
         id="rect1335"
         width="44.732449"
         height="14.099051"
         x="7.3811173"
         y="42.077751" />
    </mask>
  </defs>
  <sodipodi:namedview
     id="base"
     pagecolor="#ffffff"
     bordercolor="#666666"
     borderopacity="1.0"
     inkscape:pageopacity="0.0"
     inkscape:pageshadow="2"
     inkscape:zoom="1.4"
     inkscape:cx="206.95091"
     inkscape:cy="119.51297"
     inkscape:document-units="mm"
     inkscape:current-layer="layer1"
     inkscape:document-rotation="0"
     showgrid="false"
     units="px"
     inkscape:window-width="1920"
     inkscape:window-height="1017"
     inkscape:window-x="-8"
     inkscape:window-y="-8"
     inkscape:window-maximized="1" />
  <metadata
     id="metadata411">
    <rdf:RDF>
      <cc:Work
         rdf:about="">
        <dc:format>image/svg+xml</dc:format>
        <dc:type
           rdf:resource="http://purl.org/dc/dcmitype/StillImage" />
        <dc:title />
      </cc:Work>
    </rdf:RDF>
  </metadata>
  <g
     inkscape:label="Vague Outline"
     inkscape:groupmode="layer"
     id="layer1">
    <g
       id="g2316"
       transform="matrix(2.909594,0,0,2.909594,-69.118814,-49.636047)">
      <path
         style="fill:none;stroke:#000000;stroke-width:0.264583px;stroke-linecap:butt;stroke-linejoin:miter;stroke-opacity:1"
         d="m 26.411086,17.386904 h 2.88207 v 1.559152 h 2.882066 V 17.29241 h 3.732514 v 1.653646 h 2.740329 v -1.606399 h 3.212796 v 3.590774 H 26.316592 Z m -0.188988,3.685268 2.834821,1.937128 H 39.21503 l 2.787574,-1.937128 m -2.645833,1.795387 v 8.031994 H 29.009672 v -7.748511 m 0.09449,7.890252 -2.22061,2.267858 h 14.599331 v 2.315104 h 1.181175 v 1.889881 H 25.466142 V 35.671503 H 41.482883 26.50558 v -2.362351 z"
         id="path2310" />
      <path
         style="fill:none;stroke:#000000;stroke-width:0.264583px;stroke-linecap:butt;stroke-linejoin:miter;stroke-opacity:1"
         d="m 39.35677,30.899552 2.126113,2.4096"
         id="path2312" />
    </g>
    <path
       style="opacity:1;fill:#000000;fill-opacity:1;stroke:none;stroke-width:0.519572;stroke-miterlimit:4;stroke-dasharray:none;stroke-opacity:0"
       d="M 15.750085,28.804998 V 17.807425 h 14.571788 14.571782 v 10.997573 10.99757 H 30.321873 15.750085 Z"
       id="path2318" />
    <path
       style="opacity:1;fill:#000000;fill-opacity:1;stroke:none;stroke-width:0.519572;stroke-miterlimit:4;stroke-dasharray:none;stroke-opacity:0"
       d="M 11.88955,14.330699 8.2352186,11.827496 19.22064,11.792326 c 6.041981,-0.01949 15.902694,-0.01949 21.912705,0 l 10.927275,0.03517 -3.614845,2.508821 -3.614851,2.50882 -14.643524,-0.0055 -14.643515,-0.0055 z"
       id="path2320" />
    <path
       style="opacity:1;fill:#000000;fill-opacity:1;stroke:none;stroke-width:0.519572;stroke-miterlimit:4;stroke-dasharray:none;stroke-opacity:0"
       d="M 7.9748856,7.9439758 C 8.0204448,6.3751051 8.0936244,4.2718183 8.1375609,3.2700104 l 0.079869,-1.8214729 h 3.6976021 3.697593 v 2.2682499 2.268246 h 4.673969 4.673969 V 3.5793141 1.1735986 h 4.948909 4.948905 v 2.4057155 2.4057193 h 4.467763 4.467771 V 3.6480514 1.311068 h 4.192819 4.192823 V 6.0537708 10.796472 H 30.035831 7.8920989 Z"
       id="path2322" />
    <path
       style="opacity:1;fill:#000000;fill-opacity:1;stroke:none;stroke-width:0.519572;stroke-miterlimit:4;stroke-dasharray:none;stroke-opacity:0"
       d="m 13.049342,43.930566 c 1.561018,-1.585618 2.838218,-2.946572 2.838218,-3.024331 0,-0.09599 4.706248,-0.141377 14.653886,-0.141377 h 14.653885 l 0.582806,0.652986 c 0.32055,0.359139 1.524526,1.720085 2.675506,3.024331 l 2.092699,2.371354 H 30.378735 10.211136 Z"
       id="path2324" />
    <path
       style="opacity:1;fill:#000000;fill-opacity:1;stroke:none;stroke-width:0.519572;stroke-miterlimit:4;stroke-dasharray:none;stroke-opacity:0"
       d="M 8.4641972,50.731408 V 47.775813 H 29.771992 51.079787 v 2.955595 2.955601 H 29.771992 8.4641972 Z"
       id="path2326" />
    <path
       style="opacity:1;fill:#000000;fill-opacity:1;stroke:none;stroke-width:0.519572;stroke-miterlimit:4;stroke-dasharray:none;stroke-opacity:0"
       d="m 17.719924,59.082699 c 6.791842,-0.01978 17.865018,-0.01978 24.607065,0 6.742057,0.01978 1.185093,0.03588 -12.348792,0.03588 -13.533888,0 -19.050112,-0.01629 -12.258273,-0.03588 z"
       id="path2328" />
    <path
       style="opacity:1;fill:#000000;fill-opacity:1;stroke:none;stroke-width:0.519572;stroke-miterlimit:4;stroke-dasharray:none;stroke-opacity:0"
       d="m 5.4398666,56.848806 v -2.199511 l 22.3731854,-4.63e-4 c 12.30525,-2.47e-4 23.347499,-0.04088 24.538333,-0.09026 l 2.165148,-0.08979 v 2.289774 2.289767 H 29.978197 5.4398666 Z"
       id="path2330" />
    <path
       style="opacity:1;fill:#ffffff;fill-opacity:1;stroke:none;stroke-width:2.69966;stroke-miterlimit:4;stroke-dasharray:none;stroke-opacity:0"
       d="M 59.808056,108.79868 V 67.370112 h 54.642854 54.64286 v 41.428568 41.42857 H 114.45091 59.808056 Z"
       id="path2332"
       transform="scale(0.26458333)" />
    <path
       style="opacity:1;fill:#ffffff;fill-opacity:1;stroke:none;stroke-width:2.69966;stroke-miterlimit:4;stroke-dasharray:none;stroke-opacity:0"
       d="M 45.982567,54.330231 33.228506,45.584398 73.661138,45.14573 c 22.237948,-0.241267 58.584862,-0.241267 80.770922,0 l 40.33829,0.438668 -12.60989,8.75 -12.60989,8.75 -55.40697,-0.0042 -55.406972,-0.0042 z"
       id="path2334"
       transform="scale(0.26458333)" />
    <path
       style="opacity:1;fill:#ffffff;fill-opacity:1;stroke:none;stroke-width:2.69966;stroke-miterlimit:4;stroke-dasharray:none;stroke-opacity:0"
       d="m 30.522342,32.840192 c 0,-4.062885 0.210546,-11.77717 0.46788,-17.142857 l 0.46788,-9.755794 h 13.460691 13.460692 v 8.571428 8.571429 H 76.593771 94.808056 V 13.798684 4.5129695 h 18.214284 18.21429 v 9.2857145 9.285714 h 17.14285 17.14286 V 14.155827 5.2272552 h 15.71429 15.71428 v 17.4999998 17.5 H 113.73663 30.522342 Z"
       id="path2336"
       transform="scale(0.26458333)" />
    <path
       style="opacity:1;fill:#ffffff;fill-opacity:1;stroke:none;stroke-width:2.69966;stroke-miterlimit:4;stroke-dasharray:none;stroke-opacity:0"
       d="m 50.277911,165.61233 10.601574,-11.04349 54.999995,0.0208 55,0.0208 7.85715,8.93507 c 4.32143,4.91429 8.60365,9.87448 9.51605,11.02266 l 1.65892,2.08759 H 114.79396 39.676337 Z"
       id="path2338"
       transform="scale(0.26458333)" />
    <path
       style="opacity:1;fill:#ffffff;fill-opacity:1;stroke:none;stroke-width:2.69966;stroke-miterlimit:4;stroke-dasharray:none;stroke-opacity:0"
       d="m 32.665199,191.65583 v -10.71429 h 80.000001 80 v 10.71429 10.71428 h -80 -80.000001 z"
       id="path2340"
       transform="scale(0.26458333)" />
    <path
       style="opacity:1;fill:#ffffff;fill-opacity:1;stroke:none;stroke-width:2.69966;stroke-miterlimit:4;stroke-dasharray:none;stroke-opacity:0"
       d="m 65.343771,226.1202 c 26.419642,-0.10379 69.651789,-0.10379 96.071429,0 26.41964,0.10379 4.80357,0.18871 -48.03572,0.18871 -52.839281,0 -74.455352,-0.0849 -48.035709,-0.18871 z"
       id="path2342"
       transform="scale(0.26458333)" />
    <path
       style="opacity:1;fill:#ffffff;fill-opacity:1;stroke:none;stroke-width:2.69966;stroke-miterlimit:4;stroke-dasharray:none;stroke-opacity:0"
       d="m 21.236628,214.87011 v -8.21428 h 91.013002 c 50.05716,0 91.52145,-0.19511 92.14286,-0.43357 0.99194,-0.38064 1.12985,0.62204 1.12985,8.21429 v 8.64785 H 113.37948 21.236628 Z"
       id="path2344"
       transform="scale(0.26458333)" />
  </g>
</svg>
